<svg width="21" height="23" viewBox="0 0 21 23" fill="none" xmlns="http://www.w3.org/2000/svg">
<path d="M18.0468 17.8124H7.2655C5.84329 17.8124 4.6875 16.6566 4.6875 15.2344V2.57818C4.6875 1.15597 5.84329 0 7.2655 0H15.2417C16.1671 0 17.0737 0.37508 17.727 1.03031L19.5945 2.89782C20.2592 3.56249 20.6248 4.44569 20.6248 5.38399V15.2344C20.6248 16.6566 19.469 17.8124 18.0468 17.8124ZM7.2655 1.40625C6.61954 1.40625 6.09374 1.93222 6.09374 2.57818V15.2344C6.09374 15.8804 6.61954 16.4062 7.2655 16.4062H18.0468C18.6928 16.4062 19.2186 15.8804 19.2186 15.2344V5.38399C19.2186 4.8206 18.9992 4.29102 18.6008 3.89242L16.7333 2.02492C16.3405 1.6313 15.7977 1.40625 15.2417 1.40625H7.2655Z" fill="white"/>
<path d="M13.8281 22.5H2.57817C1.15596 22.5 0 21.3441 0 19.9218V4.9219C0 3.49969 1.15596 2.34372 2.57817 2.34372H3.04681C3.43493 2.34372 3.74993 2.65872 3.74993 3.04684C3.74993 3.43497 3.43493 3.74997 3.04681 3.74997H2.57817C1.93221 3.74997 1.40624 4.27594 1.40624 4.9219V19.9218C1.40624 20.5678 1.93221 21.0938 2.57817 21.0938H13.8281C14.4741 21.0938 14.9999 20.5678 14.9999 19.9218V19.4532C14.9999 19.0651 15.3149 18.7501 15.703 18.7501C16.0911 18.7501 16.4061 19.0651 16.4061 19.4532V19.9218C16.4061 21.3441 15.2503 22.5 13.8281 22.5Z" fill="white"/>
<path d="M16.1719 7.96872H9.14062C8.7525 7.96872 8.4375 7.65372 8.4375 7.26559C8.4375 6.87747 8.7525 6.56247 9.14062 6.56247H16.1719C16.56 6.56247 16.875 6.87747 16.875 7.26559C16.875 7.65372 16.56 7.96872 16.1719 7.96872Z" fill="white"/>
<path d="M16.1719 10.7814H9.14062C8.7525 10.7814 8.4375 10.4664 8.4375 10.0782C8.4375 9.69012 8.7525 9.37512 9.14062 9.37512H16.1719C16.56 9.37512 16.875 9.69012 16.875 10.0782C16.875 10.4664 16.56 10.7814 16.1719 10.7814Z" fill="white"/>
<path d="M16.1719 13.5938H9.14062C8.7525 13.5938 8.4375 13.2788 8.4375 12.8907C8.4375 12.5026 8.7525 12.1876 9.14062 12.1876H16.1719C16.56 12.1876 16.875 12.5026 16.875 12.8907C16.875 13.2788 16.56 13.5938 16.1719 13.5938Z" fill="white"/>
<path d="M16.1719 13.5938H9.14062C8.7525 13.5938 8.4375 13.2788 8.4375 12.8907C8.4375 12.5026 8.7525 12.1876 9.14062 12.1876H16.1719C16.56 12.1876 16.875 12.5026 16.875 12.8907C16.875 13.2788 16.56 13.5938 16.1719 13.5938Z" fill="white"/>
</svg>
