<svg width="23" height="15" viewBox="0 0 23 15" fill="none" xmlns="http://www.w3.org/2000/svg">
<path d="M19.6713 5.5814C19.4719 2.47005 16.8772 0 13.7164 0C12.5822 0 11.4785 0.319729 10.5247 0.924698C9.80866 1.37887 9.20009 1.9776 8.73625 2.67941C8.1808 2.38112 7.55572 2.22163 6.9185 2.22163C5.90194 2.22163 4.94385 2.615 4.2207 3.32919C3.62439 3.91812 3.24398 4.66958 3.12157 5.48474C2.31815 5.72143 1.59297 6.18896 1.04244 6.83286C0.370211 7.61902 0 8.62237 0 9.65805C0 12.0565 1.95132 14.0079 4.34983 14.0079H18.1501C20.5486 14.0079 22.4999 12.0565 22.4999 9.65801C22.4999 7.81744 21.3597 6.20746 19.6713 5.5814ZM18.1501 12.6897H4.34983C2.67812 12.6897 1.3181 11.3297 1.3181 9.65801C1.3181 8.16999 2.38142 6.91256 3.84644 6.66805C4.16081 6.61559 4.39262 6.34569 4.39697 6.02701C4.41573 4.65552 5.54688 3.5397 6.9185 3.5397C7.50769 3.5397 8.08111 3.74739 8.53309 4.1245C8.68814 4.25389 8.8939 4.30499 9.09153 4.26329C9.28911 4.22155 9.45664 4.09154 9.54614 3.91048C10.3365 2.31144 11.9345 1.31815 13.7164 1.31815C16.28 1.31815 18.3655 3.40375 18.3655 5.9673C18.3655 5.99779 18.3649 6.02811 18.3643 6.05843C18.3582 6.36739 18.5676 6.6391 18.8678 6.71195C20.2303 7.04248 21.1818 8.254 21.1818 9.6581C21.1818 11.3297 19.8218 12.6897 18.1501 12.6897Z" fill="white"/>
</svg>
