<svg width="23" height="19" viewBox="0 0 23 19" fill="none" xmlns="http://www.w3.org/2000/svg">
<path d="M22.582 4.61971C22.4569 4.48005 22.2784 4.40024 22.0909 4.40024H19.5191V2.10498C19.5191 1.74094 19.2239 1.4458 18.8599 1.4458H7.54666V0.65918C7.54666 0.295137 7.25152 0 6.88747 0H0.909181C0.545137 0 0.25 0.295137 0.25 0.65918L0.250791 17.8837C0.249604 18.0356 0.300625 18.1847 0.398316 18.3045C0.523516 18.458 0.711075 18.5471 0.909181 18.5471H20.6716C21.0076 18.5471 21.2898 18.2944 21.3268 17.9604L22.7461 5.13185C22.7667 4.94561 22.707 4.75937 22.582 4.61971ZM1.56836 1.31836H6.22829V2.10498C6.22829 2.46902 6.52343 2.76416 6.88747 2.76416H18.2007V4.40024H3.54608C3.23319 4.40024 2.96341 4.62019 2.90044 4.92671L1.56836 11.4072V1.31836ZM20.0813 17.2288H1.7176L4.08354 5.71865H21.3547L20.0813 17.2288Z" fill="white"/>
</svg>
