<svg width="23" height="23" viewBox="0 0 23 23" fill="none" xmlns="http://www.w3.org/2000/svg">
<path d="M12.1873 5.62512C12.1873 6.14286 11.7676 6.56257 11.2499 6.56257C10.7322 6.56257 10.3125 6.14286 10.3125 5.62512C10.3125 5.10739 10.7322 4.68768 11.2499 4.68768C11.7676 4.68768 12.1873 5.10739 12.1873 5.62512Z" fill="white"/>
<path d="M11.25 17.8124C10.8619 17.8124 10.5468 17.4974 10.5468 17.1093V9.84375H9.60939C9.22125 9.84375 8.90625 9.52875 8.90625 9.14062C8.90625 8.7525 9.22125 8.4375 9.60939 8.4375H11.25C11.6381 8.4375 11.9531 8.7525 11.9531 9.14062V17.1093C11.9531 17.4974 11.6381 17.8124 11.25 17.8124Z" fill="white"/>
<path d="M11.25 22.5C5.0465 22.5 0 17.4535 0 11.25C0 5.0465 5.0465 0 11.25 0C17.4535 0 22.5 5.0465 22.5 11.25C22.5 17.4535 17.4535 22.5 11.25 22.5ZM11.25 1.40625C5.8219 1.40625 1.40625 5.8219 1.40625 11.25C1.40625 16.6781 5.8219 21.0937 11.25 21.0937C16.6781 21.0937 21.0938 16.6781 21.0938 11.25C21.0938 5.8219 16.6781 1.40625 11.25 1.40625Z" fill="white"/>
<path d="M13.3594 17.8123H9.14062C8.7525 17.8123 8.4375 17.4973 8.4375 17.1092C8.4375 16.7211 8.7525 16.4061 9.14062 16.4061H13.3594C13.7475 16.4061 14.0625 16.7211 14.0625 17.1092C14.0625 17.4973 13.7475 17.8123 13.3594 17.8123Z" fill="white"/>
</svg>
