<svg width="24" height="23" viewBox="0 0 24 23" fill="none" xmlns="http://www.w3.org/2000/svg">
<circle cx="11.8868" cy="11.7159" r="10.8649" stroke="white" stroke-width="0.749306"/>
<path d="M13.7386 14.8476L13.9457 14.9009L14.097 14.7497L15.0047 13.8419C15.0095 13.8393 15.0232 13.8327 15.0513 13.8263C15.0994 13.8153 15.1745 13.8082 15.2843 13.8141C15.5216 13.8268 15.7641 13.8648 16.0121 13.9292C16.2687 13.9959 16.4673 14.066 16.6143 14.1365L16.6142 14.1366L16.6186 14.1386C16.9684 14.301 17.1942 14.4915 17.3288 14.696C17.3995 14.8034 17.4114 14.8621 17.4126 14.8803C17.4116 14.8815 17.4102 14.8829 17.4085 14.8847L16.2898 16.0033C16.055 16.2381 15.7318 16.3837 15.2868 16.417C14.8289 16.4513 14.3179 16.3807 13.7494 16.1923C13.181 16.0039 12.5695 15.7014 11.9141 15.2781C11.2626 14.8573 10.6393 14.3503 10.0445 13.7555C9.44976 13.1607 8.94268 12.5374 8.5219 11.8859C8.09845 11.2303 7.79586 10.6203 7.60754 10.0553C7.41933 9.49068 7.34874 8.98164 7.383 8.52378C7.4163 8.07878 7.56186 7.75557 7.79669 7.52075L8.90106 6.41638C8.9048 6.41776 8.90907 6.41945 8.9139 6.42154C8.93827 6.43211 8.97232 6.45092 9.01628 6.48278C9.2102 6.6233 9.43985 6.86908 9.70184 7.24474C9.77951 7.36321 9.8718 7.63115 9.94777 8.11116C9.98374 8.33841 9.9921 8.5124 9.98141 8.63999C9.97283 8.74248 9.95343 8.79756 9.94013 8.82384L9.05035 9.71362L8.89592 9.86805L8.9542 10.0785C9.10159 10.6108 9.47472 11.2219 10.0268 11.903C10.5847 12.5913 11.2079 13.2163 11.8961 13.7778C12.5782 14.3342 13.1952 14.7076 13.7386 14.8476Z" fill="white" stroke="white" stroke-width="0.749306"/>
</svg>
