<svg width="23" height="21" viewBox="0 0 23 21" fill="none" xmlns="http://www.w3.org/2000/svg">
<path d="M21.1816 0H1.31836C0.591416 0 0 0.591416 0 1.31836V14.4141C0 15.141 0.591416 15.7324 1.31836 15.7324H7.77832V18.9844H4.21875C3.85471 18.9844 3.55957 19.2795 3.55957 19.6436C3.55957 20.0076 3.85471 20.3027 4.21875 20.3027H18.2812C18.6453 20.3027 18.9404 20.0076 18.9404 19.6436C18.9404 19.2795 18.6453 18.9844 18.2812 18.9844H14.7217V15.7324H21.1816C21.9086 15.7324 22.5 15.141 22.5 14.4141V1.31836C22.5 0.591416 21.9086 0 21.1816 0ZM13.4033 18.9844H9.09668V15.7324H13.4033V18.9844ZM21.1816 14.4141C20.6035 14.4141 1.78172 14.4141 1.31836 14.4141V1.31836H21.1816C21.1825 14.6985 21.186 14.4141 21.1816 14.4141Z" fill="white"/>
</svg>
