<svg width="23" height="16" viewBox="0 0 23 16" fill="none" xmlns="http://www.w3.org/2000/svg">
<path d="M11.2528 7.57228C13.2742 7.57228 14.9187 5.87382 14.9187 3.78614C14.9187 1.69847 13.2742 0 11.2528 0C9.23143 0 7.58691 1.69847 7.58691 3.78614C7.58691 5.87382 9.23147 7.57228 11.2528 7.57228ZM11.2528 1.36357C12.5462 1.36357 13.5984 2.45034 13.5984 3.78614C13.5984 5.12194 12.5462 6.20871 11.2528 6.20871C9.95942 6.20871 8.90717 5.12194 8.90717 3.78614C8.90717 2.45034 9.95946 1.36357 11.2528 1.36357Z" fill="white"/>
<path d="M18.3111 7.43555C19.8482 7.43555 21.0986 6.14407 21.0986 4.55669C21.0986 2.96931 19.8482 1.67783 18.3111 1.67783C16.7741 1.67783 15.5237 2.96931 15.5237 4.55669C15.5237 6.14407 16.7741 7.43555 18.3111 7.43555ZM18.3111 3.04135C19.1202 3.04135 19.7784 3.72114 19.7784 4.55665C19.7784 5.39215 19.1202 6.07194 18.3111 6.07194C17.5021 6.07194 16.844 5.39215 16.844 4.55665C16.844 3.72114 17.5021 3.04135 18.3111 3.04135Z" fill="white"/>
<path d="M19.6918 8.22321H16.9301C16.1341 8.22321 15.3673 8.59537 14.8322 9.20966C14.2588 8.88127 13.5997 8.69391 12.8989 8.69391H9.60655C8.89995 8.69391 8.23574 8.88436 7.65905 9.21784C7.13439 8.61264 6.38207 8.25657 5.56968 8.25657H2.80799C1.25965 8.25657 0 9.55755 0 11.1567V12.2357C0 12.6122 0.295559 12.9174 0.660123 12.9174H5.60673V14.5889C5.60673 14.9654 5.90229 15.2707 6.26685 15.2707H16.2385C16.6031 15.2707 16.8987 14.9654 16.8987 14.5889V12.8841H21.8396C22.2042 12.8841 22.4998 12.5788 22.4998 12.2023V11.1234C22.4998 9.52419 21.2402 8.22321 19.6918 8.22321ZM1.32025 11.1567C1.32025 10.3094 1.98763 9.62014 2.80799 9.62014H5.56972C5.97442 9.62014 6.3506 9.78749 6.62539 10.0741C6.25818 10.4981 5.97442 11.0006 5.80076 11.5539H1.32025V11.1567ZM15.5784 13.9071H6.92698V12.8249C6.92698 11.299 8.12901 10.0575 9.60655 10.0575H12.8989C14.3764 10.0575 15.5785 11.299 15.5785 12.8249V13.9071H15.5784ZM21.1796 11.5205H16.6942C16.518 10.9752 16.2346 10.4801 15.8698 10.0622C16.1545 9.76777 16.5417 9.58673 16.9301 9.58673H19.6918C20.5122 9.58673 21.1796 10.2761 21.1796 11.1233V11.5205Z" fill="white"/>
<path d="M4.17214 7.43555C5.70916 7.43555 6.95959 6.14407 6.95959 4.55669C6.95959 2.96931 5.70916 1.67783 4.17214 1.67783C2.63512 1.67783 1.38464 2.96931 1.38464 4.55669C1.38464 6.14407 2.63512 7.43555 4.17214 7.43555ZM4.17214 3.04135C4.98116 3.04135 5.63932 3.72114 5.63932 4.55665C5.63932 5.39215 4.98116 6.07194 4.17214 6.07194C3.36312 6.07194 2.70492 5.39215 2.70492 4.55665C2.70492 3.72114 3.36312 3.04135 4.17214 3.04135Z" fill="white"/>
</svg>
