<svg width="19" height="21" viewBox="0 0 19 21" fill="none" xmlns="http://www.w3.org/2000/svg">
<path d="M9.24402 10.1158C10.733 10.1158 12.0222 9.61736 13.0758 8.63394C14.1291 7.65069 14.6633 6.44762 14.6633 5.05774C14.6633 3.66833 14.1293 2.4651 13.0756 1.48153C12.022 0.498436 10.7328 0 9.24402 0C7.75487 0 6.46587 0.498436 5.41239 1.48169C4.35891 2.46494 3.82471 3.66817 3.82471 5.05774C3.82471 6.44762 4.35891 7.65085 5.41239 8.6341C6.46621 9.6172 7.75538 10.1158 9.24402 10.1158ZM6.34485 2.35183C7.1532 1.59737 8.10145 1.23063 9.24402 1.23063C10.3864 1.23063 11.3348 1.59737 12.1434 2.35183C12.9517 3.10645 13.3448 3.99165 13.3448 5.05774C13.3448 6.12414 12.9517 7.00918 12.1434 7.7638C11.3348 8.51843 10.3864 8.88517 9.24402 8.88517C8.10179 8.88517 7.15354 8.51827 6.34485 7.7638C5.53633 7.00934 5.14323 6.12414 5.14323 5.05774C5.14323 3.99165 5.53633 3.10645 6.34485 2.35183Z" fill="white"/>
<path d="M18.7264 16.1488C18.696 15.7396 18.6345 15.2932 18.5441 14.8219C18.4527 14.347 18.3351 13.8981 18.1944 13.4877C18.0488 13.0637 17.8512 12.6448 17.6066 12.2435C17.3531 11.8269 17.0551 11.4642 16.7207 11.1657C16.371 10.8535 15.9429 10.6024 15.4478 10.4193C14.9544 10.2371 14.4077 10.1448 13.8229 10.1448C13.5932 10.1448 13.371 10.2328 12.9421 10.4934C12.678 10.6541 12.3692 10.84 12.0245 11.0456C11.7298 11.2208 11.3305 11.3851 10.8373 11.5337C10.3562 11.6791 9.86761 11.7528 9.38524 11.7528C8.90321 11.7528 8.41467 11.6791 7.93316 11.5337C7.44049 11.3852 7.04103 11.221 6.7468 11.0457C6.40537 10.8421 6.09638 10.6562 5.82842 10.4933C5.39978 10.2326 5.17765 10.1447 4.94797 10.1447C4.36294 10.1447 3.81637 10.2371 3.32319 10.4194C2.82846 10.6022 2.40017 10.8533 2.05015 11.1659C1.71575 11.4645 1.41775 11.8271 1.16438 12.2435C0.920105 12.6448 0.722351 13.0635 0.576782 13.4879C0.436191 13.8982 0.318603 14.347 0.22728 14.8219C0.136642 15.2926 0.0753593 15.7391 0.0449753 16.1493C0.0151062 16.5503 0 16.9677 0 17.3894C0 18.4856 0.373363 19.373 1.10962 20.0275C1.83678 20.6733 2.79877 21.0008 3.96898 21.0008H14.8029C15.9727 21.0008 16.9347 20.6733 17.6621 20.0275C18.3985 19.3735 18.7719 18.4857 18.7719 17.3892C18.7717 16.9661 18.7564 16.5487 18.7264 16.1488ZM16.7529 19.1359C16.2725 19.5627 15.6346 19.7702 14.8027 19.7702H3.96898C3.13694 19.7702 2.49905 19.5627 2.01874 19.136C1.54753 18.7174 1.31853 18.1459 1.31853 17.3894C1.31853 16.9959 1.33244 16.6073 1.36024 16.2343C1.38737 15.8684 1.44281 15.4664 1.52504 15.0393C1.60623 14.6174 1.70957 14.2215 1.83248 13.8631C1.95042 13.5195 2.11126 13.1792 2.31073 12.8514C2.50111 12.5389 2.72014 12.2709 2.96184 12.0549C3.18792 11.8529 3.47288 11.6875 3.80865 11.5635C4.11918 11.4488 4.46817 11.386 4.84703 11.3766C4.89321 11.3995 4.97543 11.4432 5.10864 11.5243C5.37969 11.6891 5.69212 11.8772 6.0375 12.0831C6.42683 12.3148 6.92842 12.524 7.52769 12.7046C8.14035 12.8895 8.7652 12.9834 9.38541 12.9834C10.0056 12.9834 10.6306 12.8895 11.243 12.7048C11.8427 12.5239 12.3442 12.3148 12.734 12.0828C13.0875 11.872 13.3911 11.6893 13.6622 11.5243C13.7954 11.4434 13.8776 11.3995 13.9238 11.3766C14.3028 11.386 14.6518 11.4488 14.9625 11.5635C15.2981 11.6875 15.5831 11.853 15.8091 12.0549C16.0508 12.2707 16.2699 12.5388 16.4603 12.8515C16.6599 13.1792 16.8209 13.5196 16.9387 13.863C17.0618 14.2219 17.1653 14.6176 17.2463 15.0391C17.3284 15.4671 17.384 15.8692 17.4111 16.2345V16.2348C17.4391 16.6064 17.4531 16.9947 17.4533 17.3894C17.4531 18.1461 17.2242 18.7174 16.7529 19.1359Z" fill="white"/>
</svg>
