<svg width="8" height="8" viewBox="0 0 8 8" fill="none" xmlns="http://www.w3.org/2000/svg">
<path d="M6.53765 0.777778H4.9121C4.74876 0.326667 4.32099 0 3.81543 0C3.30987 0 2.8821 0.326667 2.71876 0.777778H1.09321C0.66543 0.777778 0.31543 1.12778 0.31543 1.55556V7C0.31543 7.42778 0.66543 7.77778 1.09321 7.77778H6.53765C6.96543 7.77778 7.31543 7.42778 7.31543 7V1.55556C7.31543 1.12778 6.96543 0.777778 6.53765 0.777778ZM3.81543 0.777778C4.02932 0.777778 4.20432 0.952778 4.20432 1.16667C4.20432 1.38056 4.02932 1.55556 3.81543 1.55556C3.60154 1.55556 3.42654 1.38056 3.42654 1.16667C3.42654 0.952778 3.60154 0.777778 3.81543 0.777778ZM3.03765 6.22222L1.4821 4.66667L2.03043 4.11833L3.03765 5.12167L5.60043 2.55889L6.14876 3.11111L3.03765 6.22222Z" fill="white"/>
</svg>
