<svg width="157" height="40" viewBox="0 0 157 40" fill="none" xmlns="http://www.w3.org/2000/svg">
<path fill-rule="evenodd" clip-rule="evenodd" d="M48.3184 12.8909C48.3184 7.85373 52.232 3.72809 57.5856 3.72809C60.7671 3.72809 62.6864 4.58746 64.5291 6.15782L62.0798 9.11915C60.7165 7.98093 59.5049 7.32213 57.4584 7.32213C54.6308 7.32213 52.3853 9.8285 52.3853 12.8909C52.3853 16.1311 54.6047 18.5087 57.7372 18.5087C59.1494 18.5087 60.4132 18.1548 61.3981 17.4455V14.9146H57.4861V11.5489H65.1585V19.2425C63.3419 20.7867 60.8421 22.0522 57.6117 22.0522C52.1065 22.0538 48.3184 18.1809 48.3184 12.8909Z" fill="white"/>
<path fill-rule="evenodd" clip-rule="evenodd" d="M69.4912 4.03302H73.3788V18.207H82.191V21.7505H69.4912V4.03302Z" fill="white"/>
<path fill-rule="evenodd" clip-rule="evenodd" d="M83.3652 12.8909C83.3652 7.85373 87.3278 3.72809 92.7825 3.72809C98.2371 3.72809 102.149 7.80318 102.149 12.8909C102.149 17.9265 98.185 22.0522 92.7319 22.0522C87.2773 22.0538 83.3652 17.9787 83.3652 12.8909ZM98.0855 12.8909C98.0855 9.85296 95.8629 7.32213 92.7336 7.32213C89.6026 7.32213 87.4305 9.80241 87.4305 12.8909C87.4305 15.9273 89.6548 18.4581 92.7841 18.4581C95.9134 18.4597 98.0855 15.9795 98.0855 12.8909Z" fill="white"/>
<path fill-rule="evenodd" clip-rule="evenodd" d="M105.841 4.03302H114.046C116.065 4.03302 117.655 4.58908 118.666 5.60174C119.475 6.4122 119.879 7.39876 119.879 8.66418C119.879 10.665 118.82 11.7772 117.556 12.4865C119.601 13.2709 120.863 14.4613 120.863 16.891C120.863 20.1312 118.237 21.7505 114.247 21.7505H105.841V4.03302ZM113.212 11.195C114.93 11.195 116.015 10.6389 116.015 9.2708C116.015 8.10812 115.106 7.44932 113.466 7.44932H109.627V11.195H113.212ZM114.249 18.3325C115.966 18.3325 117 17.7259 117 16.3594C117 15.169 116.116 14.4336 114.12 14.4336H109.626V18.3325H114.249Z" fill="white"/>
<path fill-rule="evenodd" clip-rule="evenodd" d="M129.977 3.90594H133.561L141.136 21.7506H137.07L135.454 17.7766H127.983L126.367 21.7506H122.402L129.977 3.90594ZM134.067 14.3326L131.718 8.58766L129.369 14.3326H134.067Z" fill="white"/>
<path fill-rule="evenodd" clip-rule="evenodd" d="M143.802 4.03302H147.689V18.207H156.5V21.7505H143.802V4.03302Z" fill="white"/>
<path fill-rule="evenodd" clip-rule="evenodd" d="M50.678 26.0801H51.4444L55.8359 32.5653L60.2289 26.0801H60.9954V37.0465H60.1816V27.52L55.8538 33.8356H55.7886L51.4607 27.52V37.0465H50.678V26.0801Z" fill="white"/>
<path fill-rule="evenodd" clip-rule="evenodd" d="M64.0547 31.5626C64.0547 28.5719 66.2578 25.8926 69.5713 25.8926C72.8849 25.8926 75.0586 28.5409 75.0586 31.5626C75.0586 34.5549 72.8539 37.2341 69.5403 37.2341C66.2251 37.2341 64.0514 34.5859 64.0547 31.5626ZM74.2123 31.5626C74.2123 28.8523 72.244 26.6264 69.5387 26.6264C66.8334 26.6264 64.8961 28.8214 64.8961 31.5626C64.8961 34.2728 66.8644 36.497 69.5697 36.497C72.275 36.497 74.2123 34.3054 74.2123 31.5626Z" fill="white"/>
<path fill-rule="evenodd" clip-rule="evenodd" d="M77.7932 26.0801H78.5596L86.1097 35.6212V26.0801H86.8908V37.0465H86.281L78.5743 27.3015V37.0465H77.7932V26.0801Z" fill="white"/>
<path fill-rule="evenodd" clip-rule="evenodd" d="M89.9548 26.0801H90.7662V37.0465H89.9548V26.0801Z" fill="white"/>
<path fill-rule="evenodd" clip-rule="evenodd" d="M97.0971 26.8318H93.2812V26.0801H101.722V26.8318H97.9091V37.0465H97.0971V26.8318Z" fill="white"/>
<path fill-rule="evenodd" clip-rule="evenodd" d="M102.617 31.5626C102.617 28.5719 104.822 25.8926 108.135 25.8926C111.449 25.8926 113.621 28.5409 113.621 31.5626C113.621 34.5549 111.418 37.2341 108.104 37.2341C104.789 37.2341 102.617 34.5859 102.617 31.5626ZM112.776 31.5626C112.776 28.8523 110.807 26.6264 108.103 26.6264C105.398 26.6264 103.46 28.8214 103.46 31.5626C103.46 34.2728 105.428 36.497 108.134 36.497C110.839 36.497 112.776 34.3054 112.776 31.5626Z" fill="white"/>
<path fill-rule="evenodd" clip-rule="evenodd" d="M116.357 26.0801H120.952C122.296 26.0801 123.374 26.5024 124.031 27.1612C124.547 27.6765 124.86 28.4136 124.86 29.2273C124.86 31.0618 123.5 32.1104 121.657 32.3615L125.267 37.0448H124.235L120.749 32.5034H117.169V37.0448H116.357V26.0801ZM120.858 31.7647C122.688 31.7647 124.048 30.8417 124.048 29.2273C124.048 27.7548 122.891 26.8318 120.907 26.8318H117.171V31.7647H120.858Z" fill="white"/>
<path fill-rule="evenodd" clip-rule="evenodd" d="M127.916 26.0801H128.728V37.0465H127.916V26.0801Z" fill="white"/>
<path fill-rule="evenodd" clip-rule="evenodd" d="M132.025 26.0801H132.79L140.34 35.6212V26.0801H141.123V37.0465H140.511L132.806 27.3015V37.0465H132.025V26.0801Z" fill="white"/>
<path fill-rule="evenodd" clip-rule="evenodd" d="M143.591 31.5626C143.591 28.6028 145.734 25.8926 149 25.8926C150.783 25.8926 151.906 26.4259 153 27.3325L152.469 27.9424C151.609 27.1907 150.61 26.6264 148.951 26.6264C146.293 26.6264 144.434 28.8833 144.434 31.5626C144.434 34.3983 146.2 36.5133 149.124 36.5133C150.515 36.5133 151.812 35.9361 152.611 35.261V32.1105H148.951V31.3587H153.39V35.5904C152.407 36.466 150.876 37.2341 149.092 37.2341C145.638 37.2341 143.591 34.6804 143.591 31.5626Z" fill="white"/>
<path fill-rule="evenodd" clip-rule="evenodd" d="M25.3354 5.39428L25.3696 5.41383L25.5604 5.50506L25.6892 5.52624L25.7757 5.66309C25.8213 5.72011 25.8213 5.72011 26.2437 5.85696L26.26 5.85859H26.2714L26.3105 5.85533L26.4133 5.78202L26.4296 5.66961H26.56L26.5796 5.66798C26.6367 5.66146 26.6921 5.61585 26.71 5.56371C26.7296 5.50506 26.6986 5.41871 26.6497 5.37961C26.6301 5.36495 26.6269 5.36169 26.4703 5.28512C26.4899 5.22321 26.4605 5.17597 26.3545 5.00001L26.3285 4.97232C26.2812 4.92996 26.2698 4.92507 26.0708 4.86479L26.0317 4.85828H25.9762L25.7822 4.89901L25.73 4.92181L25.6615 4.95928L25.6354 4.94951L25.5506 4.93974L25.4544 4.98209H25.2392C25.1837 4.98209 25.1217 5.01794 25.0973 5.06681L25.0793 5.13361C25.0826 5.23136 25.112 5.25091 25.3354 5.39428Z" fill="white"/>
<path fill-rule="evenodd" clip-rule="evenodd" d="M37.7318 18.5805L37.5198 17.7928L37.5573 17.7765C37.6095 17.7488 37.6388 17.6901 37.6291 17.6298C37.0795 13.7455 35.2026 10.1188 32.3407 7.41349C31.4879 6.62912 30.56 5.92956 29.5849 5.32946L29.562 5.31316L29.4691 5.25771L29.4609 5.25282C29.3452 5.1827 29.2294 5.11095 29.112 5.04572L29.0696 5.02942L28.9962 4.98702C28.9407 4.9544 28.8869 4.92179 28.8739 4.91527L28.8657 4.90874L28.8054 4.8745L28.7907 4.86798L28.7059 4.82232L28.6798 4.81416L28.644 4.78971L28.5706 4.77014L28.5461 4.75709L28.4466 4.70654L28.4091 4.6935L28.3765 4.68697H28.3749L28.3211 4.66251L28.2966 4.65273L28.2656 4.6462C28.1955 4.63479 28.1384 4.67393 28.1124 4.73426C28.0863 4.7946 28.1058 4.86472 28.158 4.90548L28.2901 4.98702L28.326 5.00659C28.3553 5.02616 28.3537 5.02615 28.7418 5.22673C28.7646 5.23977 28.7646 5.24304 28.9195 5.29685L28.9212 5.29848L28.9571 5.305L28.988 5.32131L29.0484 5.3474L29.0565 5.34903L29.306 5.49742L29.3272 5.53167L29.3549 5.55939L29.4234 5.6132C29.5523 5.71431 29.7055 5.83498 29.8327 5.94749L29.8393 5.95076L29.8001 6.00783C29.7773 6.06491 29.7936 6.13013 29.8376 6.16927L29.898 6.22308L29.8344 6.19862L29.5311 5.97359L29.5082 5.95728C29.4984 5.92141 29.4512 5.86433 29.2881 5.66539L29.2946 5.64093L29.2995 5.58711L29.2212 5.46481C29.1805 5.4322 29.1788 5.4322 28.882 5.29685C28.8266 5.28054 28.7516 5.29359 28.7141 5.33436C28.657 5.32783 28.6179 5.34577 28.5869 5.38001C28.5363 5.42894 28.5298 5.50721 28.5689 5.56591C28.657 5.68985 28.7646 5.7828 28.8674 5.87248L29.0043 5.99642L29.1087 6.06654C29.1234 6.1497 29.1788 6.21656 29.2229 6.26222L29.275 6.32908C29.3125 6.37963 29.3125 6.37963 29.9241 6.69761L30.0023 6.70903L30.0594 6.69761L30.1197 6.66989L30.1735 6.7025L30.136 6.81339L30.1393 6.86884L29.8556 6.71555C29.7936 6.68131 29.7186 6.69598 29.6729 6.74816L29.6403 6.84601C29.5783 6.81828 29.518 6.79219 29.4593 6.76773C29.3859 6.73512 29.3125 6.70414 29.2392 6.66826L29.1902 6.65195L28.8657 6.59651L28.776 6.60956L28.7467 6.62423L28.5641 6.57042L28.3586 6.45627L28.2983 6.43507L28.0178 6.38452L27.977 6.37963H27.7748L27.6835 6.41224L27.6248 6.48236L27.5938 6.56553L27.4503 6.59814L27.3557 6.66826L27.3296 6.72697L27.2791 6.81502L27.2399 6.89167L27.1698 6.98788L27.1339 7.07267V7.12811L27.1519 7.21454L27.0964 7.78528L27.0997 7.83257L27.0671 7.86519L26.7475 8.25655L26.7409 8.42941L27.1829 9.08494L27.2465 9.23171L27.2872 9.28552C27.39 9.37358 27.5416 9.39641 27.6639 9.41434L27.7112 9.42087L27.6819 9.66547L27.7177 9.77962L27.8482 9.9329L27.8694 9.98345L27.6395 10.0617L27.5873 10.0943L27.5547 10.127L27.447 10.2623L27.359 10.3014L27.2693 10.3846L27.2334 10.4352L27.2155 10.4743L27.1698 10.577L27.1926 10.44V10.383C27.1812 10.3161 27.1812 10.3145 26.3561 9.55621L26.3463 9.36868L26.3365 9.30998L26.317 9.26595L26.2958 9.21214C26.2632 9.15343 26.2599 9.15017 25.9925 9.02624L25.9598 8.94307C25.9158 8.86806 25.862 8.83382 25.7691 8.82729L25.5652 8.82893C25.4233 8.84034 25.4233 8.84034 25.3027 9.45348L25.2994 9.49751L25.3141 9.56111L25.3532 9.63449H25.3288L25.2717 9.62796L25.1999 9.63775L25.107 9.6883L25.0695 9.70461L24.9928 9.73885L24.9586 9.76657L24.9456 9.77636C24.8608 9.77636 24.8298 9.80897 24.7075 9.93454L24.6797 10.0797L24.7189 10.2476C24.7368 10.2949 24.7531 10.3161 24.8102 10.3585L24.7939 10.3846L24.776 10.427L24.7238 10.6912L24.7743 10.8396C24.8053 10.8722 24.8836 10.9195 24.9782 10.9032L25.3712 10.82L25.4103 10.8102L25.7446 10.6537L25.7854 10.6292L25.8017 10.6912L25.8098 10.7075L25.7576 10.7434L25.7218 10.7841L25.6957 10.8265L25.6239 11.0189C25.6109 11.0744 25.6223 11.1298 25.6549 11.1755C25.6924 11.2244 25.7511 11.2554 25.8326 11.2635H25.9631L25.9745 11.2619L25.9191 11.4364L25.9126 11.4821L25.9158 11.5294C25.9272 11.5864 25.9419 11.6517 25.9566 11.7071L26.03 11.8098L26.1311 11.8571C26.2224 11.862 26.299 11.862 26.3691 11.862L26.6529 12.1017L26.6333 12.2175L26.6349 12.2909L26.6708 12.4572C26.5387 12.4328 26.5208 12.4295 25.9827 12.3594H25.9664C25.9191 12.3496 25.893 12.3447 25.7071 12.3121L25.6484 12.3137L25.5848 12.3333L25.4869 12.4181L25.4576 12.4768L25.3581 12.4996L25.2701 12.5551L25.2391 12.5926L25.2048 12.71C25.2326 12.8959 25.2684 13.1454 25.2945 13.3362L25.182 13.8824L25.1836 13.9297L25.1918 14.0129L25.2407 14.1058L25.3288 14.1857L25.4674 14.5641C25.5049 14.6538 25.6141 14.7043 25.7152 14.6896L25.9745 14.6358L26.0919 14.7663L25.2032 15.5311L25.1543 15.5996L25.138 15.6371L24.9945 16.2469L24.3634 16.6986L24.0715 16.8177L23.9916 16.8943C23.8709 17.1618 23.6752 17.4846 23.5024 17.7716C23.4274 17.8939 23.3573 18.013 23.2839 18.1434L22.9382 18.9001L22.9251 18.9669C22.9316 19.055 22.9316 19.0974 22.9316 19.1447L22.948 19.2066L22.9692 19.2523L23.0605 19.3974L23.1616 20.1133L22.7197 20.9874C22.6903 21.0428 22.7001 21.1113 22.7441 21.1569L22.93 21.3428C22.9284 21.4293 22.9251 21.5206 22.9235 21.6087L22.9202 21.6576L22.9235 21.7244L22.948 21.8027L23.0866 22.018L23.2986 22.2723L23.7535 22.9246L23.7927 22.9638L24.0682 23.1757L24.2802 23.4432L24.3063 23.4693L24.3846 23.5312L24.4123 23.5573L24.4498 23.5883L24.4987 23.6095L25.1461 23.9895L25.3565 24.1721L25.4299 24.2063L25.4804 24.208C25.5864 24.208 25.6891 24.1656 25.7756 24.1264L26.255 24.0465H27.0035L27.0524 24.04L27.7079 23.9715L27.7569 23.9699L27.8466 23.9536L27.8922 23.9373L28.1662 23.784L28.4564 23.7807L28.6456 23.7367L28.8021 24.1737C28.8266 24.2357 28.8886 24.2814 28.9522 24.2699L29.4658 24.2308L29.6713 24.5194L29.7039 24.601L29.3077 25.444L29.3028 25.5631L29.6436 26.4208L29.7137 26.61L29.7267 26.7828L29.73 26.8203L29.7594 26.8986L29.7822 26.9655L29.8066 27.0454L29.8311 27.1546L29.7512 27.4237L29.5637 28.4347L29.2571 28.7103L29.0875 29.1147L28.9978 29.1506L28.9326 29.193L28.8853 29.2533C28.8054 29.4441 28.7353 29.6153 28.6635 29.7898L28.6521 29.8599L28.6554 29.9056L28.7467 30.2823C28.5869 30.8808 28.3782 31.5608 28.2135 32.019L28.2037 32.0565L28.1825 32.1706L28.0553 32.5114C27.9949 32.6337 27.9721 32.6794 27.8661 32.88L27.721 33.0186C27.6346 33.1164 27.5661 33.2534 27.5041 33.3724L27.4536 33.4687L27.4454 33.5893L27.5302 33.6741C27.6199 33.7084 27.6916 33.7084 27.7569 33.7084L27.809 33.7002C27.8645 33.6807 27.9265 33.6448 27.9852 33.6122L28.0227 33.591C28.2656 33.5437 28.5771 33.4817 28.8478 33.4214L29.3354 33.1947L29.3696 33.1817L30.1393 32.6468L30.154 32.6337L30.1752 32.6207C30.2665 32.5604 30.4687 32.4185 30.5241 32.3728L30.9122 31.957L31.0753 31.7988L31.1878 31.7206H31.2694L31.3264 31.7108C31.408 31.6765 31.4732 31.6146 31.527 31.5624L31.9869 31.0911L32.013 31.0569L32.2869 30.5383L32.3326 30.4649H32.3619L32.4223 30.4519C32.5005 30.416 32.5641 30.3459 32.6131 30.2921L32.7076 30.2122L32.7207 30.1959C32.9278 30.054 33.161 29.8763 33.3045 29.767H33.3338L33.4121 29.7442L33.3159 29.8648L33.2784 29.9203L33.0762 30.266L32.6897 30.6035C32.6604 30.6362 32.6603 30.6362 32.1809 31.339C32.1451 31.4009 32.1418 31.4711 32.1385 31.5608C32.1353 31.6178 32.163 31.6716 32.2103 31.701L32.2152 31.7043L32.3195 31.7189L32.3603 31.7091L32.6636 31.5738C32.6946 31.5575 32.8397 31.4303 33.1773 31.0618L33.2409 31.096L33.3028 31.1091L33.3273 31.1074C33.4023 31.0944 33.4545 31.0324 33.4561 31.0226C33.5165 30.9541 33.5719 30.8791 33.6274 30.8057L33.6877 30.7242C33.7089 30.6949 33.7611 30.6198 33.717 30.5334L33.6812 30.4878C33.779 30.3736 33.8883 30.2464 34.004 30.1078L33.9828 30.1747L34.0432 30.2937L34.0709 30.3182L34.2079 30.3394C34.2568 30.3214 34.2552 30.3214 34.4639 30.0736C34.503 30.0165 34.5096 29.9937 34.5389 29.873L34.5422 29.8322L34.4998 29.7295C34.4541 29.6822 34.3824 29.6757 34.3237 29.705L34.2617 29.7621L34.3579 29.617L34.384 29.6121C34.4394 29.5925 34.4623 29.5729 34.5079 29.511L35.002 28.6483C35.0232 28.6011 35.0249 28.5945 35.0542 28.42C35.064 28.363 35.0395 28.3075 34.9939 28.2749C34.9009 28.2097 34.8422 28.2227 34.7917 28.2537C34.7688 28.27 34.7574 28.2765 34.6221 28.438C34.6465 28.3418 34.596 28.2814 34.5585 28.257L34.5193 28.2407L34.3807 28.2244H34.3383H34.3025L34.3432 28.1412L34.4182 27.9895L34.4655 27.8933L34.4786 27.8314L34.4802 27.7547L34.702 27.1383L34.7411 26.9541L34.9319 26.6344L35.0069 26.5578L35.0395 26.5121C35.1015 26.3621 35.1374 26.2561 35.1602 26.1795L35.3477 25.8794L35.4602 25.7196L35.5255 25.6642L36.0636 24.8505L36.1941 24.7901L36.2674 24.72L36.6066 23.996L36.6164 23.9715C36.7681 23.6454 36.936 23.2181 36.9474 23.1643L37.0159 22.8578C37.0893 22.5186 37.1774 22.1354 37.223 21.8467L37.2312 21.7652L37.2035 21.6054L37.117 21.4945L36.9768 21.5108L36.7566 21.6674C36.6849 21.7212 36.6066 21.7782 36.5349 21.8272L36.5071 21.788L36.4941 21.7766L36.5023 21.6788L36.5006 21.6462L36.5349 21.6331L36.5691 21.6119L37.0208 21.2499L37.0616 21.1961L37.3714 20.6433L37.3894 20.5895C37.3991 20.5275 37.4008 20.4802 37.4057 20.4427L37.466 20.3693L37.6209 19.9617L37.6274 19.9258L37.647 19.735C37.6845 19.3746 37.7253 18.9653 37.7334 18.6196L37.7318 18.5805ZM36.1174 20.2927L36.1093 20.658L36.0326 20.5895L36.0196 20.5846L35.9527 20.0155L35.9462 19.9763L35.9348 19.9405L35.894 19.7692C35.9739 19.9535 36.0522 20.1329 36.1174 20.2927ZM30.2257 14.8217C30.2453 14.9424 30.2632 15.0761 30.273 15.2245L30.2502 15.3109L30.4671 15.3892L31.1536 15.5539L31.2074 15.5751L31.8434 15.9387L31.8923 15.6795L31.9575 15.5816L32.1027 15.4936L32.1451 15.474L32.1989 15.4642C32.3424 15.4642 32.4777 15.4642 32.6685 15.4936L32.768 15.562L32.8104 15.6322C32.8805 15.6322 32.9588 15.6322 33.0468 15.6289L33.1023 15.6371L33.6551 15.8507L33.7578 15.6958C33.792 15.642 33.8589 15.6208 33.9225 15.6387L34.3041 15.7561L34.3318 15.1674C34.3139 15.1071 34.2992 15.0451 34.2813 14.9848L34.2062 15.0794L34.1475 15.1234L34.0334 15.1364L34.0171 15.1315L33.9812 15.1169C33.7611 14.988 33.7611 14.988 33.7448 14.9766C33.6877 14.9212 33.66 14.8429 33.673 14.7744L33.7121 14.6994L33.6909 14.6896L33.6371 14.7141L33.342 14.7875L33.2066 14.7516L33.1544 14.7027C33.174 14.9538 33.1805 15.0826 33.0061 15.0989H32.993L32.9849 15.1006C32.3831 14.9799 32.3831 14.9799 32.3293 14.8967C32.238 14.7288 32.2396 14.7288 32.2331 14.6962L32.2315 14.6391H32.0961L32.013 14.6146L31.9804 14.5918L31.9151 14.5298L31.8597 14.4287C31.8205 14.3586 31.7814 14.2852 31.7472 14.2232L31.739 14.2069L31.6868 14.1972L31.6004 14.1401L31.4227 13.8971L31.3444 13.8629L31.2922 13.8237L31.2628 13.783L31.2221 13.7063L31.1308 13.7357H31.1079L31.1438 13.8107L31.1454 13.9395L31.0052 14.2249L30.9155 14.3015V14.551C30.9106 14.6342 30.8666 14.6978 30.7997 14.7239L30.8307 14.8103L30.8226 14.8918L30.803 14.9391C30.653 15.1674 30.6383 15.1919 30.547 15.2049L30.4964 15.2017L30.5258 15.0582L30.4932 15.2017C30.4687 15.1968 30.3921 15.1805 30.3399 15.0891L30.2893 14.9832C30.2714 14.931 30.2437 14.8739 30.2257 14.8217ZM28.9538 9.78288L29.0125 9.76494C29.0761 9.74537 29.1201 9.68504 29.1152 9.61818L29.0973 9.2953L29.1544 9.16974L29.2277 8.82729L29.231 8.78653L29.4903 8.89904L29.5849 8.90557C29.611 9.00015 29.6468 9.05885 29.686 9.12245L29.7202 9.16322L29.7659 9.19583V9.29041L29.8751 9.59372C29.7642 9.56274 29.6159 9.59209 29.4968 9.62307L29.4006 9.6459L29.3664 9.65569L29.0027 9.79593L28.9668 9.81875L28.8935 9.80734L28.9538 9.78288ZM32.6408 12.5795L32.6816 12.4996L32.6897 12.4083L32.706 12.2093L32.7451 12.2517C33.0501 12.5273 33.0501 12.5273 33.1251 12.5273L33.1968 12.5094L33.2588 12.4605L33.3403 12.3463L33.3795 12.3806L33.8605 12.7116L34.0611 12.8681L33.8442 12.8991C33.6404 12.7573 33.629 12.7524 33.5703 12.7524L33.5099 12.7638C33.4137 12.7997 33.3012 12.8421 33.1871 12.8845C33.0925 12.9203 32.9979 12.9546 32.9115 12.9872L32.8202 12.9823L32.6408 12.7866L32.6326 12.7638L32.6522 12.6708L32.6408 12.5795ZM32.5984 14.1385L32.5723 14.0798L32.5413 14.039L32.5984 14.1009L32.6783 14.1825L32.8316 14.5005C32.75 14.4923 32.6636 14.4874 32.5837 14.4842L32.5103 14.4776L32.5739 14.4173L32.6196 14.3113C32.6196 14.2347 32.6082 14.189 32.5984 14.1385ZM26.7833 14.6684L27.1046 14.6211L27.1437 14.6097L27.178 14.5934L27.2122 14.5706L27.4894 14.3292L27.553 14.2591L27.6802 14.1238L27.7177 13.9721L27.6003 13.615L27.6264 13.54L27.7569 13.4845H27.8042L27.8563 13.4764L27.8971 13.4585L28.0618 13.3786L28.1433 13.266L28.1743 13.0002L28.1955 12.9627L28.6113 13.0231L28.6945 12.9986L28.9016 12.8633H28.9424L28.9049 12.9057L28.8788 12.9529C28.8739 12.966 28.8592 13.0035 28.8771 13.0948L28.913 13.2514L28.9261 13.2889L28.9685 13.3508L28.9636 13.4568L28.9848 13.5416C29.006 13.6346 29.0272 13.7292 29.0484 13.8286C29.0777 13.9509 29.1756 13.9754 29.2196 13.9852H29.2913L29.3289 13.9754L29.5376 13.8922C29.6126 13.8694 29.6631 13.7993 29.6631 13.721C29.6648 13.69 29.6631 13.69 29.562 13.3688C29.5392 13.3084 29.4968 13.266 29.4348 13.2399L29.4723 13.1095L29.4756 13.0916L29.7414 13.3508L29.7903 13.3867L30.335 13.69L30.3904 13.7291L30.4394 13.8515L30.0839 13.7927L29.9518 13.8286C29.8931 13.8547 29.8588 13.9151 29.8653 13.9803C29.8719 14.0276 29.8784 14.0618 29.8931 14.127L29.9224 14.1939C30.0268 14.3227 30.1931 14.4271 30.3382 14.5184L30.3839 14.5445L30.3741 14.5429C30.2795 14.5592 30.2143 14.6342 30.2127 14.7385C30.2013 14.6733 30.1882 14.6097 30.1752 14.5494L30.1246 14.463L30.0023 14.3684L29.7594 14.2314L29.6517 14.2037L29.5816 14.2151L29.3598 14.2917L28.0129 14.3733L27.9623 14.3831L27.085 14.7043H26.7638L26.7833 14.6684ZM34.0725 29.1164L33.7692 29.3006L33.7643 29.3055L34.0823 28.7984L34.1932 28.831L34.2307 28.8359H34.234H34.2568L34.3155 28.8147C34.247 28.9011 34.1655 29.0006 34.0725 29.1164Z" fill="white"/>
<path fill-rule="evenodd" clip-rule="evenodd" d="M29.3004 25.1875C29.3346 25.0735 29.3135 24.9513 29.245 24.8584C29.175 24.7623 29.0561 24.7101 28.9159 24.7101H28.8768C28.665 24.7395 28.4989 24.878 28.4565 25.0653C28.4207 25.2185 28.4761 25.3683 28.6031 25.4531C28.6716 25.5019 28.753 25.5247 28.8394 25.5247C29.0528 25.5247 29.245 25.3797 29.3004 25.1875Z" fill="white"/>
<path fill-rule="evenodd" clip-rule="evenodd" d="M22.8111 6.88362C22.8681 6.88199 22.9187 6.85101 22.9415 6.80046L22.997 6.68631C23.0296 6.61945 23.0622 6.54933 23.0883 6.49062L23.0997 6.41235L23.0654 6.3194L23.129 6.22156L23.2024 5.73724L23.1926 5.65734L23.191 5.53667C23.1437 5.4372 23.0964 5.34262 23.0508 5.2513L23.1193 5.19586L23.1845 5.21542L23.3264 5.19096L23.4519 5.08497L23.5025 4.9806V4.96756L23.478 4.87298C23.3932 4.75394 23.235 4.71969 23.1095 4.69197C23.0703 4.68219 23.0328 4.67403 22.9741 4.65773L22.9334 4.65447L22.7784 4.68545L22.7312 4.61044L22.6512 4.50607C22.6186 4.449 22.5779 4.37888 22.5045 4.32181C22.3806 4.21907 22.2175 4.19461 22.0756 4.17341C21.8277 4.14243 21.5685 4.16526 21.3222 4.18972C21.2293 4.19624 21.1396 4.19298 21.0532 4.18972C20.9537 4.18483 20.851 4.18157 20.7645 4.19135C20.7091 4.19461 20.6667 4.2207 20.6292 4.23538C20.5917 4.2207 20.5118 4.19787 20.4514 4.21255C20.2835 4.25495 20.1188 4.38377 19.9573 4.5077L19.8562 4.58598L19.8448 4.57293L19.7209 4.49629C19.5872 4.49303 19.5562 4.48487 19.5154 4.43432L19.491 4.37562C19.4681 4.30387 19.4257 4.17015 19.2431 4.13754L19.1909 4.13265L19.0605 4.15221L19.0556 4.15384L19.0605 4.14569C19.0605 4.07883 19.0605 3.91739 18.8273 3.85543L18.7278 3.84564C18.6919 3.84564 18.5566 3.85053 18.4685 3.90761C18.3886 3.95979 18.3674 4.02339 18.3658 4.04785L18.2924 4.08862L18.1929 4.1408L18.056 4.26147C18.0136 4.30876 17.9679 4.35931 17.9027 4.3479L17.7853 4.34953C17.6662 4.40171 17.6222 4.47183 17.6075 4.53869C17.5537 4.58924 17.482 4.67403 17.464 4.7572L17.3613 4.8208L17.3482 4.6349C17.3352 4.56315 17.239 4.49955 17.1754 4.5077C17.1134 4.51423 17.0596 4.54358 17.0074 4.61533L16.7645 4.77025L16.7139 4.81264L16.4693 5.08334L16.4416 5.25945L16.4448 5.27087L16.4399 5.27576C16.4106 5.23499 16.3649 5.22032 16.2198 5.18933L16.2231 5.1877L16.254 5.1453L16.36 4.95451L16.3698 4.80612C16.347 4.75231 16.2752 4.71969 16.2182 4.71317C16.1546 4.71317 16.1497 4.71806 15.9132 4.88602L15.8757 4.92842L15.7567 5.129L15.7061 5.11269L15.7355 5.01648C15.7322 4.94147 15.6866 4.90559 15.5904 4.83221L15.4893 4.81427C15.4615 4.81753 15.4436 4.82243 15.3278 4.87787L15.305 4.86809C15.2202 4.82732 15.1142 4.88765 15.0783 4.91701L14.9952 4.99691L14.9903 4.9855C14.9642 4.92842 14.8973 4.89092 14.8353 4.89744L14.3543 4.94636L14.3119 4.9594L13.9743 5.09475C13.8944 5.129 13.8781 5.15835 13.795 5.2937L13.7901 5.30185L13.7493 5.29696H13.4754L13.4378 5.30185L13.3906 5.3149L12.8247 5.54972L12.7758 5.57744L12.4431 5.79106L12.3518 5.90684C12.3355 5.96391 12.36 6.02914 12.4056 6.06664L12.3649 6.11883L12.3306 6.01935L12.2426 5.9313L12.2148 5.88238C12.179 5.83672 12.1154 5.81552 12.0583 5.83672L11.9996 5.85465L11.9637 5.83672L11.8642 5.82367L11.5104 5.88238L11.5202 5.84161C11.5365 5.77312 11.5528 5.69974 11.5772 5.64593C11.6033 5.57907 11.5756 5.49916 11.5153 5.46166L11.4207 5.43883C11.3016 5.45024 11.1451 5.46818 11.0261 5.48286L10.9837 5.49264L10.5026 5.68669C9.71172 6.22971 8.9616 6.83959 8.27345 7.49676L8.2392 7.55383L7.91144 7.96314L7.88208 8.08218L7.7712 8.1898H7.71901C7.64563 8.19306 7.64563 8.19306 7.29667 8.54692L7.2347 8.63335C7.20698 8.64803 7.17273 8.67738 7.09446 8.74261L7.0276 8.82414L6.91019 8.96112L6.89389 8.997L6.85149 9.03124C6.79115 9.10625 6.72919 9.18289 6.67048 9.25954L6.65907 9.41771L6.61015 9.47642L6.53839 9.49435C6.496 9.51718 6.496 9.51719 6.22693 9.84495L6.19432 9.89061L6.16497 9.93301C6.14866 9.95747 6.12583 10.0129 6.06549 10.145L6.00842 10.2689L5.91221 10.326L5.80132 10.4646C4.53917 12.3644 3.6749 14.4582 3.23135 16.7053L3.18243 17.2874L3.21016 18.0441L3.10742 18.8447L3.11231 18.9051L3.19385 19.1937C3.27701 19.484 3.37159 19.8117 3.46291 20.0678L3.50857 20.1346L3.86895 20.5064C3.91298 20.5521 3.98473 20.5635 4.04181 20.5341L4.2326 20.4347L4.37936 20.7967L4.39567 20.8342L4.42502 20.8717L4.51634 21.0152L4.5408 21.0478L4.70876 21.2239L4.77888 21.2777L5.02511 21.4196L5.03001 21.4424L5.38713 22.5154L5.41648 22.5611L5.49965 22.6606C5.54041 22.7111 5.61216 22.7274 5.67087 22.7013L5.71163 22.6817L5.8535 22.8465L5.85514 22.8513L5.91873 22.9361L5.99048 22.9769L6.03451 22.9932L6.22367 23.2623C6.26118 23.3177 6.33456 23.3373 6.40142 23.3128L6.60199 23.2248L6.67374 23.1595L6.74712 23.277C6.80583 23.6781 6.87758 24.0841 6.95911 24.4886L6.90693 24.7576L6.8254 25.0283L6.70962 25.617L6.70799 25.6724L6.71614 25.7148C6.75365 25.8518 6.79441 25.9888 6.83355 26.1241L6.8466 26.1633L6.88247 26.2236L6.94281 26.2774L6.95259 26.2872L6.93628 26.3166L6.92324 26.4128L6.94117 26.4813L7.2347 27.1286L7.25916 27.1613L7.83805 27.6602L8.12506 28.0891L8.1593 28.1315L8.18376 28.1609H8.18539C8.62405 28.7332 9.25839 29.498 9.37254 29.5796L10.1748 30.0084L10.2026 30.0166C10.2776 30.0655 10.3558 30.1112 10.6168 30.2628L10.6983 30.3427C11.0146 30.8254 11.4778 31.5266 11.8544 32.0517C12.6975 33.1149 12.9242 33.4003 13.9988 34.4716L14.0298 34.4977L14.32 34.7048L14.444 34.8271L14.5059 34.8891L14.5369 34.9136C14.5924 34.9445 14.6609 34.9641 14.7245 34.9772C14.7326 35.0342 14.7554 35.0489 14.9919 35.2169L15.1223 35.2642L15.1272 35.2691L15.212 35.3946L15.274 35.4484L15.4729 35.5332L15.5088 35.5919L15.5496 35.6327C15.6295 35.6881 15.7339 35.724 15.8252 35.755L15.8855 35.7762L15.8871 35.7795L15.9638 35.8969L16.016 35.9344L16.1057 35.9751L16.2557 36.055L16.3552 36.0828H16.36L16.3845 36.0795L16.4448 36.1154L16.4807 36.1349L16.5574 36.1643L16.634 36.2458L16.9487 36.3877H17.0678L17.0857 36.3779L17.1085 36.3942L17.1786 36.4578L17.464 36.5801L17.5064 36.5915L17.5684 36.5948L17.5977 36.603C17.6923 36.6225 17.738 36.6225 17.782 36.6225C17.8375 36.6225 17.888 36.5915 17.9108 36.5475L17.9386 36.5426L18.0511 36.4578L18.038 36.3143L18.0364 36.3111L18.0462 36.3143L18.1391 36.3176L18.1962 36.2931L18.2582 36.192L18.2207 36.0632L18.0935 35.9148C18.0657 35.8838 18.0592 35.8822 17.901 35.8039L17.8358 35.7958L17.7722 35.8137L17.6939 35.8333C17.6336 35.8675 17.601 35.9556 17.6238 36.0208L17.6728 36.1219L17.451 36.0485L17.4004 36.0322L17.3613 36.0257L17.2977 35.967L17.2569 35.9393L17.0792 35.8365L16.8933 35.5642L16.8656 35.53L16.7563 35.4174L16.696 35.3783L16.5068 35.3147L16.4726 35.2218C16.3291 35.0522 16.2002 34.8973 16.0681 34.7326L16.0258 34.695L15.985 34.6722L15.998 34.514L15.9687 34.4619L16.1562 34.3298L16.2165 34.214L16.2198 34.1683L16.1709 33.8601L16.1301 33.7786L16.0323 33.7036L16.0616 33.6922L16.1513 33.6221L16.1741 33.5748L16.241 33.3399L16.2752 33.3008L16.3046 33.2388L16.3698 32.9453L16.3927 32.9176L16.4285 32.8491L16.4351 32.7953L16.4285 32.6404L16.4351 32.6322L16.4677 32.4789L16.1774 31.7386C16.5101 31.5543 16.9177 31.3326 17.2308 31.1679L17.3091 31.0602L17.3434 30.8319C17.3955 30.4944 17.4542 30.1047 17.5048 29.7965L17.4999 29.7247L17.3042 28.8751L17.3874 28.7691L17.5292 28.7153L17.5798 28.6827L17.6092 28.6533L17.6369 28.6175L17.888 28.1446L17.8929 28.1332L18.1783 27.6276L18.1995 27.5396L18.1978 27.4939L18.0397 26.6965L17.9614 26.5954C17.5456 26.385 16.9895 26.1078 16.5411 25.8893L16.5003 25.8812L15.3653 25.7263L14.9756 25.5779L14.5337 25.255L14.4913 25.2322L14.3934 25.1946L14.4048 25.1653L14.3951 25.0169L14.3592 24.9517L14.2401 24.8913L14.2222 24.893L13.8928 24.619L13.4802 24.032L13.4476 23.97L13.402 23.9194L13.3449 23.8803L12.6339 23.5558L12.4138 23.3829L12.3045 23.352L11.8691 23.409L11.3375 22.91L11.3995 22.9003L11.4354 22.8889L11.5283 22.7682C11.5381 22.6573 11.5381 22.5741 11.5348 22.5056L11.6849 22.3621L11.7273 22.2561V22.1795C11.7273 22.1012 11.6702 22.0393 11.5952 22.0344C11.4076 22.0213 11.2446 22.0148 11.0929 22.0132V21.9887C11.0929 21.9561 11.0929 21.9545 11.0326 21.7832C11.088 21.7457 11.1239 21.687 11.1239 21.6153C11.1239 21.5843 11.1239 21.5843 11.0375 21.343C11.0342 21.3038 11.0163 21.2435 10.9804 21.1342L11.0358 21.0772C11.0815 20.9972 11.0603 20.9353 10.9804 20.6923L10.9706 20.6695L10.9722 20.5586C11.0424 20.5276 11.0913 20.4608 11.0962 20.3743C11.0962 20.3433 11.0962 20.3433 11.0179 20.0906C10.9869 20.0237 10.9396 19.9911 10.8923 19.9781L10.894 19.9634C10.8989 19.9079 10.8826 19.8476 10.8434 19.8052C10.8075 19.7628 10.7554 19.7384 10.6885 19.7351H10.6396C10.6265 19.6682 10.5776 19.6014 10.4863 19.5753C10.3624 19.541 10.2058 19.5149 10.0574 19.4889C9.98567 19.4774 9.91392 19.4644 9.86989 19.4579L9.77532 19.4497L9.65464 19.5247C9.59757 19.4823 9.5405 19.4367 9.48342 19.3959L9.36275 19.3046L9.21599 19.254C9.15402 19.2589 9.10021 19.2915 9.06433 19.3519L9.06107 19.3486L8.63383 19.1073L8.43489 19.0355L8.33542 19.0013L8.25551 18.9997L8.25062 19.0029H8.1381L8.08918 19.0094L8.04026 19.0306L8.02232 19.0388L8.02722 19.0323L8.03374 19.0111L8.037 18.9997H8.18702L8.19844 18.998C8.30769 18.9899 8.37455 18.9018 8.38271 18.8333C8.39412 18.7697 8.39412 18.7697 8.26693 18.4534C8.22942 18.3718 8.13158 18.3229 8.04841 18.3441C8.01417 18.3523 7.96362 18.3735 7.91796 18.442C7.88534 18.4958 7.85273 18.5659 7.82012 18.6295L7.80707 18.6654C7.65216 18.5561 7.48256 18.442 7.31134 18.3278C7.07326 18.1664 6.83192 18.0033 6.63297 17.8565L6.52535 17.8256L6.47969 17.8304L6.06386 17.9185L6.02473 17.9283C5.94808 17.956 5.94482 17.9576 5.74262 18.4126L5.67087 18.3686L5.60564 18.3637L4.94521 18.4583C4.88814 18.4648 4.84085 18.5072 4.82454 18.5643L4.67452 19.1203L4.45437 19.1595L4.27337 18.6507L4.45926 17.6723L4.62233 17.1733L4.77073 16.9417C4.93706 16.6824 5.11806 16.3971 5.27787 16.1655H5.50617L5.82904 16.4737C5.87633 16.5194 5.94645 16.5275 6.0019 16.4949C6.13398 16.4183 6.18617 16.2682 6.22367 16.1345L6.63624 16.2764L6.58569 17.4489C6.58569 17.5059 6.61504 17.5598 6.66559 17.5858C6.78952 17.6494 6.87758 17.6494 6.94117 17.6494L7.03902 17.6103L7.09772 17.5581L7.10424 17.5989L7.16621 17.7815C7.17926 17.8321 7.21839 17.8973 7.34559 17.9201L7.53638 17.9185L7.55432 17.9152C7.63911 17.9055 7.7076 17.8451 7.72391 17.7717C7.74348 17.7212 7.74347 17.7212 7.67336 17.3494C7.65053 17.2581 7.58041 17.2026 7.49072 17.2026H7.34233L7.45484 16.8292C7.48909 16.5813 7.52822 16.3367 7.57225 16.0921L7.93101 15.4774H7.96362L8.02232 15.4643L8.45935 15.1773C8.70721 15.0061 8.97139 14.8251 9.19153 14.6783L9.23393 14.6359C9.2698 14.5805 9.28448 14.5576 9.291 14.5267C9.32688 14.3603 9.36764 14.194 9.40841 14.0326L9.44102 14.057C9.49973 14.1059 9.58452 14.1011 9.63834 14.0472L10.2645 13.4227L10.2971 13.3836L10.3819 13.2466L11.0505 13.1765L11.1435 13.1292L11.3326 12.9237L11.362 12.7737L11.3457 12.7345L11.4745 12.5519H11.6131L11.6506 12.547L11.7093 12.5258L12.1904 12.2959L12.161 12.4117L12.1887 12.5389L12.2279 12.5878C12.2686 12.6367 12.3371 12.653 12.3942 12.6302C12.6307 12.5405 12.9258 12.428 13.1949 12.3252L13.4884 12.2127L13.5438 12.1752L13.5895 12.1247L13.6123 12.0888H13.7803H13.7868C13.8553 12.0839 13.87 12.0757 14.064 11.9339L14.1146 11.8638C14.1521 11.7757 14.1244 11.7186 14.064 11.6534L14.1113 11.4528L14.0706 11.3044C14.0347 11.2637 13.9858 11.2473 13.9075 11.2408C13.8227 11.2457 13.8194 11.2457 13.384 11.7039L13.2748 11.5816C13.2911 11.5213 13.3058 11.4675 13.3188 11.4088H13.3204L13.4215 11.368L13.6303 11.1658L13.671 11.0191L13.6678 10.9832L13.6254 10.8951L14.2907 10.8919L14.2858 10.8967C14.2597 10.9147 14.201 10.9555 14.1929 11.0354L14.2271 11.1577L14.1488 11.28L14.1423 11.4447C14.1847 11.5311 14.2141 11.5409 14.6429 11.6143L14.6788 11.699C14.6951 11.7186 14.7359 11.7806 14.8451 11.7855L14.9935 11.7838L15.0946 11.7414L15.2153 11.7855H15.3441L15.3702 11.7822C15.4354 11.7724 15.4338 11.7724 15.7241 11.5686C15.7404 11.5555 15.7795 11.518 15.7909 11.4577L15.8105 11.337C15.8105 11.2571 15.7828 11.2131 15.7192 11.1756L15.7551 11.1153L15.7616 10.9767C15.7404 10.9228 15.7159 10.8967 15.6018 10.8429L15.8399 10.6489C15.9002 10.5951 15.9214 10.5119 15.8937 10.4434L15.7975 10.3456L15.9458 10.132L15.9556 10.1173L15.9736 9.99987L15.8692 9.89877L15.561 9.82212L15.5822 9.78299C15.6213 9.66884 15.6458 9.57915 15.6686 9.49599L15.6784 9.45685C15.6947 9.39814 15.6703 9.33129 15.6165 9.29704L15.5626 9.26117L15.5692 9.23182L15.6034 9.11604C15.6703 8.68064 15.7192 8.45887 15.7208 8.44419C15.7339 8.38223 15.7094 8.32026 15.6556 8.28764L15.6246 8.26644C15.6833 8.24525 15.7012 8.22731 15.8268 8.0039L15.8627 8.01695L15.9247 8.02837H16.0192C16.1073 8.02347 16.1105 8.0251 16.4742 7.64515L16.5622 7.67124C16.634 7.67124 16.6585 7.6582 17.2537 7.34184L17.2846 7.31901L17.3515 7.2065C17.3629 7.13475 17.3629 7.12822 17.0384 6.73033L17.195 6.5477C17.2488 6.44659 17.2488 6.4466 16.934 5.99L16.8868 5.94597L16.8509 5.92477L16.8297 5.91825C16.8704 5.89053 16.921 5.83508 17.0254 5.72094L17.0417 5.70626L17.1085 5.70952C17.2553 5.67854 17.3988 5.58396 17.526 5.49916L17.6255 5.43394H17.6793L17.7266 5.42741L17.963 5.37197L18.0609 5.28391L18.0641 5.31653L18.0853 5.38501L18.0869 5.38991L18.0576 5.48612L18.0527 5.54808L18.0592 5.59048L18.0951 5.68996L18.1832 5.7829L18.25 5.80247C18.3903 5.80573 18.5207 5.80573 18.6218 5.80247L18.7572 5.82856L18.7898 5.91173L18.6756 6.22156L18.6707 6.31614L18.7115 6.3993L18.7164 6.51834L18.7669 6.61619L18.793 6.66511L18.8256 6.70587L18.6137 6.7075C18.5386 6.71729 18.5386 6.71729 18.219 6.98635L18.1669 7.06463L18.1571 7.09887L18.1049 7.39239L18.1098 7.46578L18.1587 7.54731L18.1571 7.56688L18.0918 7.58971L18.0527 7.61091C18.0331 7.62395 17.9891 7.65331 17.9695 7.71527L17.9679 7.79518L18.1342 8.44908L18.1832 8.52736L18.2565 8.57465L18.3152 8.58606H18.4702L18.5647 8.75239L18.6039 8.79805C18.6544 8.8323 18.718 8.85676 18.7881 8.84045L19.0914 8.77196L19.1404 8.74913L19.3589 8.53551C19.5676 8.32026 19.8008 8.07565 19.9867 7.87508L20.4417 7.71364L20.4938 7.68592L20.5607 7.64026L20.6357 7.66309L20.6863 7.67124C20.7629 7.67124 20.7841 7.65331 21.032 7.46741L21.4837 7.21791L21.725 7.26357H21.7658L21.8359 7.25052C22.118 7.14779 22.4947 7.00755 22.7801 6.8983L22.8111 6.88362ZM14.457 7.64678C14.4114 7.56525 14.457 7.49187 14.4733 7.46415L14.669 7.24563L14.6984 7.21791L14.793 7.15921L14.32 7.25215V7.30271L14.276 7.57666L14.3086 7.58971L14.5125 7.69734L14.457 7.64678ZM12.9291 7.76093L12.9796 7.72832L13.0139 7.69734L13.066 7.61417H13.3107L13.3041 7.65983C13.2927 7.73158 13.3351 7.8017 13.4052 7.8229C13.4998 7.85062 13.5667 7.85062 13.6205 7.85062L13.6939 7.83431L13.795 7.79844L13.8178 7.80496C13.7167 7.90606 13.6254 8.02673 13.5406 8.13762C13.4835 8.21589 13.4264 8.28928 13.3726 8.34961L13.0677 8.4605L12.9943 8.52083L12.6535 9.07038L11.9588 9.31172L11.8724 9.37531L11.8316 9.44217L11.8284 9.43402L11.631 9.12908L11.5218 8.75239L11.4354 8.65944L11.4484 8.64803L11.5022 8.54529L11.5071 8.47681L11.98 8.1311C12.1398 8.06913 12.329 7.99575 12.5132 7.92074L12.9291 7.76093ZM14.9299 7.10702L15.3784 6.69935C15.4354 6.71892 15.5007 6.74012 15.5789 6.76621L15.3767 6.93906L15.3441 6.97168L15.2414 7.10702H14.9299ZM15.031 8.3806C15.0865 8.32515 15.0881 8.23709 15.0359 8.17839L14.6951 7.80007L14.6641 7.77724L14.5337 7.70712C14.6201 7.75115 14.6592 7.72832 14.9805 7.68103L15.0294 7.71201L15 7.74952C14.9055 7.89954 14.9446 7.92563 15.4338 8.25503L15.442 8.25992L14.9577 8.52409L14.9201 8.48985L15.031 8.3806ZM5.7736 18.6751L5.82252 18.7045L5.79317 18.7697C5.77523 18.8268 5.77686 18.8464 5.80458 19.0094C5.82578 19.0796 5.85514 19.1056 5.91221 19.1366L6.03125 19.1464L6.07854 19.1268C6.0606 19.2981 6.12746 19.4628 6.24976 19.5541C6.3101 19.5949 6.37696 19.6161 6.44871 19.6161C6.64765 19.6161 6.81887 19.4416 6.8466 19.21C6.85475 19.1334 6.8466 19.0551 6.82213 18.985L6.89552 19.0518L6.89225 19.1415L6.88899 19.2671C6.89715 19.3454 6.93954 19.4041 7.00966 19.4367L7.04717 19.4465L7.10588 19.4514L7.55921 19.3845V19.4155L7.56084 19.4383L7.52007 19.59L7.43527 19.5378C7.3358 19.5084 7.20372 19.4856 7.08468 19.466L6.92813 19.4383V19.4448L6.8629 19.4383C6.79441 19.4514 6.77974 19.4693 6.64439 19.6356C6.61014 19.6829 6.59547 19.7416 6.60688 19.7987L6.67537 19.921C6.75038 19.983 6.84823 20.0384 6.93302 20.0873L7.0276 20.1411L7.07815 20.1607L7.10098 20.164L7.1499 20.1656L7.20535 20.1525L7.45321 20.0563L7.48746 20.0335C7.53964 19.996 7.56899 19.9438 7.57388 19.8639L7.57551 19.7644C7.64074 19.8117 7.80055 19.8362 8.21964 19.9063L8.26693 19.9128L8.30932 19.9161H8.31422L8.33215 19.9145L9.03661 19.9128L9.05455 19.9112C9.08716 19.965 9.14587 20.0009 9.22414 20.0042H9.67421H9.68237L9.81282 19.9503L9.83565 19.9732L9.92534 20.0547L10.0542 20.102L10.1227 20.0906L10.2123 20.0629L10.214 20.0987C10.2205 20.1754 10.2645 20.2357 10.3379 20.2651L10.3069 20.3727C10.3069 20.4689 10.3086 20.5619 10.3086 20.6581L10.3118 20.7575C10.3249 20.8652 10.3999 20.9076 10.4472 20.9271L10.4504 21.0233V21.0282L10.4194 21.1391C10.4211 21.2174 10.4243 21.2957 10.4276 21.3805C10.4325 21.4359 10.4618 21.4881 10.5042 21.5207L10.5124 21.6609L10.514 21.6707L10.4733 21.8044C10.4781 21.8664 10.4798 21.93 10.483 21.9903L10.4863 22.0393C10.4961 22.1208 10.558 22.2007 10.6657 22.2186V22.2268L10.6706 22.3295L10.3819 22.0702L10.3444 22.0442L9.80141 21.93H9.74433L9.70193 21.9365L9.66443 21.9496L9.56659 22.0018L9.004 21.8599L8.65992 21.4457L8.61263 21.4066L8.57024 21.3854L8.4039 21.4114L8.30117 21.5125L8.21801 21.4685L8.1006 21.4049H7.9571L7.29177 21.7735L7.23307 21.8256L7.20698 21.8664L6.99662 22.3556L6.8042 22.2186L6.73897 22.1942L6.70146 22.1909L6.68026 22.1893L6.65744 22.1909L6.24976 22.2578L6.10952 22.0018L6.14866 20.7559L6.15355 20.6581L6.13235 20.5847C6.06386 20.4673 5.94972 20.3319 5.86003 20.2227L5.82089 20.1737L5.75566 20.1248L5.70674 20.1036L5.36593 20.0335V20.0286L5.36756 19.7269L5.7736 18.6751Z" fill="white"/>
<path fill-rule="evenodd" clip-rule="evenodd" d="M23.2155 8.27523H23.2286C23.2791 8.27523 23.2791 8.27523 24.0586 7.93636C24.1466 7.87608 24.1434 7.79625 24.1303 7.74086C24.1205 7.70013 24.1059 7.65777 24.0847 7.59912L24.0504 7.54373L24.0145 7.50951L23.7015 7.26514C23.6737 7.24396 23.6167 7.22604 23.5433 7.22278L22.966 7.32542L22.8372 7.24559L22.7459 7.22441C22.7002 7.22441 22.6497 7.23581 22.3415 7.29609C22.2779 7.31727 22.2306 7.36126 22.2175 7.42154L22.2681 7.59423C22.3219 7.64474 22.3888 7.68547 22.454 7.72457L22.4034 7.83698L22.4099 7.9722C22.4491 8.05529 22.4491 8.05529 23.1731 8.27034L23.2155 8.27523Z" fill="white"/>
<path fill-rule="evenodd" clip-rule="evenodd" d="M38.9859 20.0955H37.7825C37.7825 24.9126 35.8338 29.2649 32.6752 32.4235C29.5165 35.5805 25.1642 37.5308 20.3488 37.5308C15.5301 37.5308 11.1778 35.5805 8.02075 32.4235C4.8621 29.2649 2.91342 24.9126 2.91342 20.0955C2.91342 15.2768 4.8621 10.9261 8.02075 7.76748C11.1794 4.61047 15.5301 2.66016 20.3488 2.66016C25.1675 2.66179 29.5165 4.61047 32.6752 7.76748C35.8338 10.9261 37.7825 15.2768 37.7825 20.0955H38.9859H40.191C40.191 9.134 31.3054 0.251631 20.3471 0.25C9.38564 0.25 0.5 9.134 0.5 20.0955C0.501631 31.0554 9.38564 39.941 20.3471 39.941C31.3054 39.941 40.191 31.0554 40.191 20.0955H38.9859Z" fill="white"/>
</svg>
