<svg width="0" height="0" xmlns="http://www.w3.org/2000/svg">

  <symbol xmlns="http://www.w3.org/2000/svg" viewBox="0 0 21 23" id="clipboard">
    <path d="M18.047 17.812H7.265a2.58 2.58 0 01-2.577-2.578V2.578A2.58 2.58 0 017.265 0h7.976c.925 0 1.832.375 2.485 1.03l1.867 1.868a3.493 3.493 0 011.03 2.486v9.85a2.58 2.58 0 01-2.577 2.578zM7.265 1.406c-.645 0-1.171.526-1.171 1.172v12.656c0 .646.526 1.172 1.171 1.172h10.782c.646 0 1.172-.526 1.172-1.172v-9.85a2.1 2.1 0 00-.618-1.492l-1.868-1.867a2.12 2.12 0 00-1.491-.619H7.265z" fill="currentColor"></path>
    <path d="M13.828 22.5H2.578A2.58 2.58 0 010 19.922v-15a2.58 2.58 0 012.578-2.578h.469a.703.703 0 010 1.406h-.469c-.646 0-1.172.526-1.172 1.172v15c0 .646.526 1.172 1.172 1.172h11.25c.646 0 1.172-.526 1.172-1.172v-.469a.703.703 0 011.406 0v.469a2.58 2.58 0 01-2.578 2.578zm2.344-14.531H9.14a.703.703 0 010-1.407h7.03a.703.703 0 010 1.407z" fill="currentColor"></path>
    <path d="M16.172 10.781H9.14a.703.703 0 010-1.406h7.03a.703.703 0 010 1.406zm0 2.813H9.14a.703.703 0 010-1.406h7.03a.703.703 0 010 1.406z" fill="currentColor"></path>
    <path d="M16.172 13.594H9.14a.703.703 0 010-1.406h7.03a.703.703 0 010 1.406z" fill="currentColor"></path>
  </symbol>

  <symbol xmlns="http://www.w3.org/2000/svg" viewBox="0 0 23 15" id="cloud">
    <path d="M19.671 5.581A5.975 5.975 0 0013.716 0c-1.134 0-2.237.32-3.191.925a5.987 5.987 0 00-1.789 1.754 3.846 3.846 0 00-1.818-.457 3.816 3.816 0 00-2.697 1.107 3.816 3.816 0 00-1.1 2.156 4.35 4.35 0 001.228 8.523H18.15a4.355 4.355 0 004.35-4.35c0-1.84-1.14-3.45-2.829-4.077zm-1.52 7.109H4.35a3.035 3.035 0 01-3.032-3.032 3.02 3.02 0 012.528-2.99.66.66 0 00.551-.641A2.532 2.532 0 016.918 3.54c.59 0 1.163.207 1.615.585a.66.66 0 001.013-.215 4.624 4.624 0 014.17-2.592 4.654 4.654 0 014.65 4.65l-.002.09a.66.66 0 00.504.654 3.022 3.022 0 012.314 2.946 3.035 3.035 0 01-3.032 3.032z" fill="currentColor"></path>
  </symbol>

  <symbol xmlns="http://www.w3.org/2000/svg" viewBox="0 0 23 19" id="folder">
    <path d="M22.582 4.62a.66.66 0 00-.491-.22h-2.572V2.105a.66.66 0 00-.66-.66H7.548V.66A.66.66 0 006.887 0H.91a.66.66 0 00-.66.66v17.224a.657.657 0 00.66.663h19.762a.66.66 0 00.655-.587l1.42-12.828a.66.66 0 00-.165-.512zM1.568 1.318h4.66v.787c0 .364.295.66.66.66H18.2V4.4H3.546a.66.66 0 00-.646.527l-1.332 6.48V1.318zm18.513 15.91H1.718l2.366-11.51h17.27l-1.273 11.51z" fill="currentColor"></path>
  </symbol>

  <symbol xmlns="http://www.w3.org/2000/svg" viewBox="0 0 23 23" id="info_circle">
    <path d="M12.187 5.625a.937.937 0 11-1.875 0 .937.937 0 011.875 0zm-.937 12.187a.703.703 0 01-.703-.703V9.844h-.938a.703.703 0 010-1.406h1.641c.388 0 .703.314.703.703v7.968a.703.703 0 01-.703.703z" fill="currentColor"></path>
    <path d="M11.25 22.5C5.046 22.5 0 17.453 0 11.25 0 5.046 5.046 0 11.25 0 17.453 0 22.5 5.046 22.5 11.25c0 6.203-5.047 11.25-11.25 11.25zm0-21.094c-5.428 0-9.844 4.416-9.844 9.844 0 5.428 4.416 9.844 9.844 9.844 5.428 0 9.844-4.416 9.844-9.844 0-5.428-4.416-9.844-9.844-9.844z" fill="currentColor"></path>
    <path d="M13.36 17.812H9.14a.703.703 0 010-1.406h4.22a.703.703 0 010 1.406z" fill="currentColor"></path>
  </symbol>

  <symbol xmlns="http://www.w3.org/2000/svg" viewBox="0 0 24 23" id="phone_circle">
    <circle cx="11.887" cy="11.716" r="11.25" fill="transparent" stroke="currentColor" stroke-width="1.1"></circle>
    <path d="M13.739 14.848l.207.053.151-.151.908-.908a.186.186 0 01.046-.016.872.872 0 01.233-.012c.238.013.48.05.728.115a3.4 3.4 0 01.602.207h0l.005.003c.35.162.575.353.71.557a.44.44 0 01.084.184l-.005.005-1.118 1.118c-.235.235-.558.38-1.003.414-.458.034-.97-.036-1.538-.225-.568-.188-1.18-.49-1.835-.914a11.378 11.378 0 01-1.87-1.523 11.38 11.38 0 01-1.522-1.87c-.424-.655-.726-1.265-.914-1.83-.189-.564-.26-1.073-.225-1.531.033-.445.179-.768.414-1.003L8.9 6.416a.562.562 0 01.115.066c.194.141.424.387.686.763.078.118.17.386.246.866.036.227.044.401.033.529a.513.513 0 01-.04.184l-.89.89-.155.154.058.21c.148.533.52 1.144 1.073 1.825a12.885 12.885 0 001.87 1.875c.681.556 1.298.93 1.842 1.07z" fill="currentColor" stroke="currentColor" stroke-width=".749"></path>
  </symbol>

  <symbol xmlns="http://www.w3.org/2000/svg" viewBox="0 0 21 21" id="plus">
    <path d="M19.49 10.884H.76a.76.76 0 010-1.518h18.73a.76.76 0 010 1.518z" fill="currentColor"></path>
    <path d="M10.124 20.25a.76.76 0 01-.759-.76V.76a.76.76 0 011.519 0v18.73c0 .42-.34.76-.76.76z" fill="currentColor"></path>
  </symbol>

  <symbol xmlns="http://www.w3.org/2000/svg" viewBox="0 0 23 21" id="television">
    <path d="M21.182 0H1.318A1.32 1.32 0 000 1.318v13.096a1.32 1.32 0 001.318 1.318h6.46v3.252h-3.56a.66.66 0 100 1.319h14.063a.66.66 0 100-1.319h-3.56v-3.252h6.46a1.32 1.32 0 001.319-1.318V1.318A1.32 1.32 0 0021.182 0zm-7.779 18.984H9.097v-3.252h4.306v3.252zm7.779-4.57H1.318V1.318h19.864c0 13.38.004 13.096 0 13.096z" fill="currentColor"></path>
  </symbol>

  <symbol xmlns="http://www.w3.org/2000/svg" viewBox="0 0 19 21" id="user">
    <path d="M9.244 10.116c1.489 0 2.778-.499 3.832-1.482 1.053-.983 1.587-2.186 1.587-3.576 0-1.39-.534-2.593-1.587-3.576C12.022.498 10.733 0 9.244 0c-1.49 0-2.778.498-3.832 1.482-1.053.983-1.587 2.186-1.587 3.576 0 1.39.534 2.593 1.587 3.576 1.054.983 2.343 1.482 3.832 1.482zm-2.9-7.764c.81-.755 1.757-1.121 2.9-1.121 1.142 0 2.09.366 2.9 1.12.808.755 1.2 1.64 1.2 2.707 0 1.066-.392 1.951-1.2 2.706-.81.754-1.758 1.121-2.9 1.121s-2.09-.367-2.9-1.121c-.808-.755-1.2-1.64-1.2-2.706s.392-1.952 1.2-2.706zm12.382 13.797c-.03-.41-.091-.856-.182-1.327a9.906 9.906 0 00-.35-1.334 6.38 6.38 0 00-.587-1.245 4.743 4.743 0 00-.886-1.077 3.956 3.956 0 00-1.273-.747 4.678 4.678 0 00-1.625-.274c-.23 0-.452.088-.88.348-.265.161-.574.347-.918.553-.295.175-.694.34-1.188.488a5.02 5.02 0 01-1.452.219c-.482 0-.97-.074-1.452-.22-.493-.148-.892-.312-1.186-.487-.342-.204-.65-.39-.919-.553-.428-.26-.65-.348-.88-.348a4.68 4.68 0 00-1.625.274 3.952 3.952 0 00-1.273.747 4.744 4.744 0 00-.886 1.077c-.244.402-.442.82-.587 1.245-.14.41-.258.859-.35 1.334-.09.47-.152.917-.182 1.327-.03.401-.045.819-.045 1.24 0 1.097.373 1.984 1.11 2.639.727.645 1.689.973 2.859.973h10.834c1.17 0 2.132-.328 2.86-.974.735-.654 1.109-1.541 1.109-2.638 0-.423-.016-.84-.046-1.24zm-1.973 2.987c-.48.427-1.118.634-1.95.634H3.969c-.832 0-1.47-.207-1.95-.634-.471-.419-.7-.99-.7-1.747 0-.393.013-.782.041-1.155.027-.366.083-.768.165-1.195a8.86 8.86 0 01.307-1.176c.118-.343.28-.684.479-1.012.19-.312.41-.58.65-.796a2.66 2.66 0 01.848-.492c.31-.114.66-.177 1.038-.186.046.022.128.066.262.147.27.165.583.353.928.56.39.23.891.44 1.49.62a6.428 6.428 0 001.858.28c.62 0 1.246-.095 1.858-.28.6-.18 1.101-.39 1.491-.621.354-.211.657-.394.928-.559.133-.08.216-.124.262-.147.379.009.728.072 1.039.186.335.124.62.29.846.492.242.216.46.484.651.796.2.328.36.669.479 1.012.123.359.226.755.307 1.176.082.428.138.83.165 1.196.028.371.042.76.042 1.154 0 .757-.229 1.328-.7 1.747z" fill="currentColor"></path>
  </symbol>

  <symbol xmlns="http://www.w3.org/2000/svg" viewBox="0 0 23 16" id="users">
    <path d="M11.253 7.572c2.021 0 3.666-1.698 3.666-3.786S13.274 0 11.253 0C9.23 0 7.587 1.698 7.587 3.786s1.644 3.786 3.666 3.786zm0-6.208c1.293 0 2.345 1.086 2.345 2.422S12.546 6.21 11.253 6.21c-1.294 0-2.346-1.087-2.346-2.423s1.052-2.422 2.346-2.422zm7.058 6.072c1.537 0 2.788-1.292 2.788-2.88 0-1.587-1.25-2.878-2.788-2.878-1.537 0-2.787 1.291-2.787 2.879 0 1.587 1.25 2.879 2.787 2.879zm0-4.395c.81 0 1.467.68 1.467 1.516 0 .835-.658 1.515-1.467 1.515s-1.467-.68-1.467-1.515c0-.836.658-1.516 1.467-1.516zm1.381 5.182H16.93c-.796 0-1.563.372-2.098.987a3.876 3.876 0 00-1.933-.516H9.607c-.707 0-1.371.19-1.948.524a2.757 2.757 0 00-2.09-.961h-2.76C1.26 8.257 0 9.557 0 11.157v1.079c0 .376.296.681.66.681h4.947v1.672c0 .376.295.682.66.682h9.971c.365 0 .66-.306.66-.682v-1.705h4.942c.364 0 .66-.305.66-.682v-1.079c0-1.599-1.26-2.9-2.808-2.9zM1.32 11.157c0-.848.668-1.537 1.488-1.537H5.57c.404 0 .78.167 1.055.454a4.166 4.166 0 00-.824 1.48H1.32v-.397zm14.258 2.75H6.927v-1.082c0-1.526 1.202-2.768 2.68-2.768h3.292c1.477 0 2.68 1.242 2.68 2.768v1.082zm5.602-2.386h-4.486a4.165 4.165 0 00-.824-1.459c.284-.294.672-.475 1.06-.475h2.762c.82 0 1.488.69 1.488 1.536v.398zM4.172 7.436c1.537 0 2.788-1.292 2.788-2.88 0-1.587-1.25-2.878-2.788-2.878-1.537 0-2.787 1.291-2.787 2.879 0 1.587 1.25 2.879 2.787 2.879zm0-4.395c.81 0 1.467.68 1.467 1.516 0 .835-.658 1.515-1.467 1.515s-1.467-.68-1.467-1.515c0-.836.658-1.516 1.467-1.516z" fill="currentColor"></path>
  </symbol>

</svg>