<svg xmlns="http://www.w3.org/2000/svg">

	<symbol id="folder" viewBox="0 0 23 23">
		<path d="M22.582 4.61971C22.4569 4.48005 22.2784 4.40024 22.0909 4.40024H19.5191V2.10498C19.5191 1.74094 19.2239 1.4458 18.8599 1.4458H7.54666V0.65918C7.54666 0.295137 7.25152 0 6.88747 0H0.909181C0.545137 0 0.25 0.295137 0.25 0.65918L0.250791 17.8837C0.249604 18.0356 0.300625 18.1847 0.398316 18.3045C0.523516 18.458 0.711075 18.5471 0.909181 18.5471H20.6716C21.0076 18.5471 21.2898 18.2944 21.3268 17.9604L22.7461 5.13185C22.7667 4.94561 22.707 4.75937 22.582 4.61971ZM1.56836 1.31836H6.22829V2.10498C6.22829 2.46902 6.52343 2.76416 6.88747 2.76416H18.2007V4.40024H3.54608C3.23319 4.40024 2.96341 4.62019 2.90044 4.92671L1.56836 11.4072V1.31836ZM20.0813 17.2288H1.7176L4.08354 5.71865H21.3547L20.0813 17.2288Z" fill="currentColor"/>
	</symbol>

	<symbol id="television" viewBox="0 0 23 23">
		<path d="M21.1816 0H1.31836C0.591416 0 0 0.591416 0 1.31836V14.4141C0 15.141 0.591416 15.7324 1.31836 15.7324H7.77832V18.9844H4.21875C3.85471 18.9844 3.55957 19.2795 3.55957 19.6436C3.55957 20.0076 3.85471 20.3027 4.21875 20.3027H18.2812C18.6453 20.3027 18.9404 20.0076 18.9404 19.6436C18.9404 19.2795 18.6453 18.9844 18.2812 18.9844H14.7217V15.7324H21.1816C21.9086 15.7324 22.5 15.141 22.5 14.4141V1.31836C22.5 0.591416 21.9086 0 21.1816 0ZM13.4033 18.9844H9.09668V15.7324H13.4033V18.9844ZM21.1816 14.4141C20.6035 14.4141 1.78172 14.4141 1.31836 14.4141V1.31836H21.1816C21.1825 14.6985 21.186 14.4141 21.1816 14.4141Z" fill="currentColor"/>
	</symbol>

	<symbol id="clipboard" viewBox="0 0 23 23">
		<path d="M18.0468 17.8124H7.2655C5.84329 17.8124 4.6875 16.6566 4.6875 15.2344V2.57818C4.6875 1.15597 5.84329 0 7.2655 0H15.2417C16.1671 0 17.0737 0.37508 17.727 1.03031L19.5945 2.89782C20.2592 3.56249 20.6248 4.44569 20.6248 5.38399V15.2344C20.6248 16.6566 19.469 17.8124 18.0468 17.8124ZM7.2655 1.40625C6.61954 1.40625 6.09374 1.93222 6.09374 2.57818V15.2344C6.09374 15.8804 6.61954 16.4062 7.2655 16.4062H18.0468C18.6928 16.4062 19.2186 15.8804 19.2186 15.2344V5.38399C19.2186 4.8206 18.9992 4.29102 18.6008 3.89242L16.7333 2.02492C16.3405 1.6313 15.7977 1.40625 15.2417 1.40625H7.2655Z" fill="currentColor"/>
		<path d="M13.8281 22.5H2.57817C1.15596 22.5 0 21.3441 0 19.9218V4.9219C0 3.49969 1.15596 2.34372 2.57817 2.34372H3.04681C3.43493 2.34372 3.74993 2.65872 3.74993 3.04684C3.74993 3.43497 3.43493 3.74997 3.04681 3.74997H2.57817C1.93221 3.74997 1.40624 4.27594 1.40624 4.9219V19.9218C1.40624 20.5678 1.93221 21.0938 2.57817 21.0938H13.8281C14.4741 21.0938 14.9999 20.5678 14.9999 19.9218V19.4532C14.9999 19.0651 15.3149 18.7501 15.703 18.7501C16.0911 18.7501 16.4061 19.0651 16.4061 19.4532V19.9218C16.4061 21.3441 15.2503 22.5 13.8281 22.5Z" fill="currentColor"/>
		<path d="M16.1719 7.96872H9.14062C8.7525 7.96872 8.4375 7.65372 8.4375 7.26559C8.4375 6.87747 8.7525 6.56247 9.14062 6.56247H16.1719C16.56 6.56247 16.875 6.87747 16.875 7.26559C16.875 7.65372 16.56 7.96872 16.1719 7.96872Z" fill="currentColor"/>
		<path d="M16.1719 10.7814H9.14062C8.7525 10.7814 8.4375 10.4664 8.4375 10.0782C8.4375 9.69012 8.7525 9.37512 9.14062 9.37512H16.1719C16.56 9.37512 16.875 9.69012 16.875 10.0782C16.875 10.4664 16.56 10.7814 16.1719 10.7814Z" fill="currentColor"/>
		<path d="M16.1719 13.5938H9.14062C8.7525 13.5938 8.4375 13.2788 8.4375 12.8907C8.4375 12.5026 8.7525 12.1876 9.14062 12.1876H16.1719C16.56 12.1876 16.875 12.5026 16.875 12.8907C16.875 13.2788 16.56 13.5938 16.1719 13.5938Z" fill="currentColor"/>
		<path d="M16.1719 13.5938H9.14062C8.7525 13.5938 8.4375 13.2788 8.4375 12.8907C8.4375 12.5026 8.7525 12.1876 9.14062 12.1876H16.1719C16.56 12.1876 16.875 12.5026 16.875 12.8907C16.875 13.2788 16.56 13.5938 16.1719 13.5938Z" fill="currentColor"/>
	</symbol>

	<symbol id="info_circle" viewBox="0 0 23 23">
		<path d="M12.1873 5.62512C12.1873 6.14286 11.7676 6.56257 11.2499 6.56257C10.7322 6.56257 10.3125 6.14286 10.3125 5.62512C10.3125 5.10739 10.7322 4.68768 11.2499 4.68768C11.7676 4.68768 12.1873 5.10739 12.1873 5.62512Z" fill="currentColor"/>
		<path d="M11.25 17.8124C10.8619 17.8124 10.5468 17.4974 10.5468 17.1093V9.84375H9.60939C9.22125 9.84375 8.90625 9.52875 8.90625 9.14062C8.90625 8.7525 9.22125 8.4375 9.60939 8.4375H11.25C11.6381 8.4375 11.9531 8.7525 11.9531 9.14062V17.1093C11.9531 17.4974 11.6381 17.8124 11.25 17.8124Z" fill="currentColor"/>
		<path d="M11.25 22.5C5.0465 22.5 0 17.4535 0 11.25C0 5.0465 5.0465 0 11.25 0C17.4535 0 22.5 5.0465 22.5 11.25C22.5 17.4535 17.4535 22.5 11.25 22.5ZM11.25 1.40625C5.8219 1.40625 1.40625 5.8219 1.40625 11.25C1.40625 16.6781 5.8219 21.0937 11.25 21.0937C16.6781 21.0937 21.0938 16.6781 21.0938 11.25C21.0938 5.8219 16.6781 1.40625 11.25 1.40625Z" fill="currentColor"/>
		<path d="M13.3594 17.8123H9.14062C8.7525 17.8123 8.4375 17.4973 8.4375 17.1092C8.4375 16.7211 8.7525 16.4061 9.14062 16.4061H13.3594C13.7475 16.4061 14.0625 16.7211 14.0625 17.1092C14.0625 17.4973 13.7475 17.8123 13.3594 17.8123Z" fill="currentColor"/>
	</symbol>

	<symbol id="users" viewBox="0 0 50 50">
		<path d="M11.2528 7.57228C13.2742 7.57228 14.9187 5.87382 14.9187 3.78614C14.9187 1.69847 13.2742 0 11.2528 0C9.23143 0 7.58691 1.69847 7.58691 3.78614C7.58691 5.87382 9.23147 7.57228 11.2528 7.57228ZM11.2528 1.36357C12.5462 1.36357 13.5984 2.45034 13.5984 3.78614C13.5984 5.12194 12.5462 6.20871 11.2528 6.20871C9.95942 6.20871 8.90717 5.12194 8.90717 3.78614C8.90717 2.45034 9.95946 1.36357 11.2528 1.36357Z" fill="currentColor"/>
		<path d="M18.3111 7.43555C19.8482 7.43555 21.0986 6.14407 21.0986 4.55669C21.0986 2.96931 19.8482 1.67783 18.3111 1.67783C16.7741 1.67783 15.5237 2.96931 15.5237 4.55669C15.5237 6.14407 16.7741 7.43555 18.3111 7.43555ZM18.3111 3.04135C19.1202 3.04135 19.7784 3.72114 19.7784 4.55665C19.7784 5.39215 19.1202 6.07194 18.3111 6.07194C17.5021 6.07194 16.844 5.39215 16.844 4.55665C16.844 3.72114 17.5021 3.04135 18.3111 3.04135Z" fill="currentColor"/>
		<path d="M19.6918 8.22321H16.9301C16.1341 8.22321 15.3673 8.59537 14.8322 9.20966C14.2588 8.88127 13.5997 8.69391 12.8989 8.69391H9.60655C8.89995 8.69391 8.23574 8.88436 7.65905 9.21784C7.13439 8.61264 6.38207 8.25657 5.56968 8.25657H2.80799C1.25965 8.25657 0 9.55755 0 11.1567V12.2357C0 12.6122 0.295559 12.9174 0.660123 12.9174H5.60673V14.5889C5.60673 14.9654 5.90229 15.2707 6.26685 15.2707H16.2385C16.6031 15.2707 16.8987 14.9654 16.8987 14.5889V12.8841H21.8396C22.2042 12.8841 22.4998 12.5788 22.4998 12.2023V11.1234C22.4998 9.52419 21.2402 8.22321 19.6918 8.22321ZM1.32025 11.1567C1.32025 10.3094 1.98763 9.62014 2.80799 9.62014H5.56972C5.97442 9.62014 6.3506 9.78749 6.62539 10.0741C6.25818 10.4981 5.97442 11.0006 5.80076 11.5539H1.32025V11.1567ZM15.5784 13.9071H6.92698V12.8249C6.92698 11.299 8.12901 10.0575 9.60655 10.0575H12.8989C14.3764 10.0575 15.5785 11.299 15.5785 12.8249V13.9071H15.5784ZM21.1796 11.5205H16.6942C16.518 10.9752 16.2346 10.4801 15.8698 10.0622C16.1545 9.76777 16.5417 9.58673 16.9301 9.58673H19.6918C20.5122 9.58673 21.1796 10.2761 21.1796 11.1233V11.5205Z" fill="currentColor"/>
		<path d="M4.17214 7.43555C5.70916 7.43555 6.95959 6.14407 6.95959 4.55669C6.95959 2.96931 5.70916 1.67783 4.17214 1.67783C2.63512 1.67783 1.38464 2.96931 1.38464 4.55669C1.38464 6.14407 2.63512 7.43555 4.17214 7.43555ZM4.17214 3.04135C4.98116 3.04135 5.63932 3.72114 5.63932 4.55665C5.63932 5.39215 4.98116 6.07194 4.17214 6.07194C3.36312 6.07194 2.70492 5.39215 2.70492 4.55665C2.70492 3.72114 3.36312 3.04135 4.17214 3.04135Z" fill="currentColor"/>
	</symbol>

	<symbol id="user" viewBox="0 0 23 23">
		<path d="M9.24402 10.1158C10.733 10.1158 12.0222 9.61736 13.0758 8.63394C14.1291 7.65069 14.6633 6.44762 14.6633 5.05774C14.6633 3.66833 14.1293 2.4651 13.0756 1.48153C12.022 0.498436 10.7328 0 9.24402 0C7.75487 0 6.46587 0.498436 5.41239 1.48169C4.35891 2.46494 3.82471 3.66817 3.82471 5.05774C3.82471 6.44762 4.35891 7.65085 5.41239 8.6341C6.46621 9.6172 7.75538 10.1158 9.24402 10.1158ZM6.34485 2.35183C7.1532 1.59737 8.10145 1.23063 9.24402 1.23063C10.3864 1.23063 11.3348 1.59737 12.1434 2.35183C12.9517 3.10645 13.3448 3.99165 13.3448 5.05774C13.3448 6.12414 12.9517 7.00918 12.1434 7.7638C11.3348 8.51843 10.3864 8.88517 9.24402 8.88517C8.10179 8.88517 7.15354 8.51827 6.34485 7.7638C5.53633 7.00934 5.14323 6.12414 5.14323 5.05774C5.14323 3.99165 5.53633 3.10645 6.34485 2.35183Z" fill="currentColor"/>
		<path d="M18.7264 16.1488C18.696 15.7396 18.6345 15.2932 18.5441 14.8219C18.4527 14.347 18.3351 13.8981 18.1944 13.4877C18.0488 13.0637 17.8512 12.6448 17.6066 12.2435C17.3531 11.8269 17.0551 11.4642 16.7207 11.1657C16.371 10.8535 15.9429 10.6024 15.4478 10.4193C14.9544 10.2371 14.4077 10.1448 13.8229 10.1448C13.5932 10.1448 13.371 10.2328 12.9421 10.4934C12.678 10.6541 12.3692 10.84 12.0245 11.0456C11.7298 11.2208 11.3305 11.3851 10.8373 11.5337C10.3562 11.6791 9.86761 11.7528 9.38524 11.7528C8.90321 11.7528 8.41467 11.6791 7.93316 11.5337C7.44049 11.3852 7.04103 11.221 6.7468 11.0457C6.40537 10.8421 6.09638 10.6562 5.82842 10.4933C5.39978 10.2326 5.17765 10.1447 4.94797 10.1447C4.36294 10.1447 3.81637 10.2371 3.32319 10.4194C2.82846 10.6022 2.40017 10.8533 2.05015 11.1659C1.71575 11.4645 1.41775 11.8271 1.16438 12.2435C0.920105 12.6448 0.722351 13.0635 0.576782 13.4879C0.436191 13.8982 0.318603 14.347 0.22728 14.8219C0.136642 15.2926 0.0753593 15.7391 0.0449753 16.1493C0.0151062 16.5503 0 16.9677 0 17.3894C0 18.4856 0.373363 19.373 1.10962 20.0275C1.83678 20.6733 2.79877 21.0008 3.96898 21.0008H14.8029C15.9727 21.0008 16.9347 20.6733 17.6621 20.0275C18.3985 19.3735 18.7719 18.4857 18.7719 17.3892C18.7717 16.9661 18.7564 16.5487 18.7264 16.1488ZM16.7529 19.1359C16.2725 19.5627 15.6346 19.7702 14.8027 19.7702H3.96898C3.13694 19.7702 2.49905 19.5627 2.01874 19.136C1.54753 18.7174 1.31853 18.1459 1.31853 17.3894C1.31853 16.9959 1.33244 16.6073 1.36024 16.2343C1.38737 15.8684 1.44281 15.4664 1.52504 15.0393C1.60623 14.6174 1.70957 14.2215 1.83248 13.8631C1.95042 13.5195 2.11126 13.1792 2.31073 12.8514C2.50111 12.5389 2.72014 12.2709 2.96184 12.0549C3.18792 11.8529 3.47288 11.6875 3.80865 11.5635C4.11918 11.4488 4.46817 11.386 4.84703 11.3766C4.89321 11.3995 4.97543 11.4432 5.10864 11.5243C5.37969 11.6891 5.69212 11.8772 6.0375 12.0831C6.42683 12.3148 6.92842 12.524 7.52769 12.7046C8.14035 12.8895 8.7652 12.9834 9.38541 12.9834C10.0056 12.9834 10.6306 12.8895 11.243 12.7048C11.8427 12.5239 12.3442 12.3148 12.734 12.0828C13.0875 11.872 13.3911 11.6893 13.6622 11.5243C13.7954 11.4434 13.8776 11.3995 13.9238 11.3766C14.3028 11.386 14.6518 11.4488 14.9625 11.5635C15.2981 11.6875 15.5831 11.853 15.8091 12.0549C16.0508 12.2707 16.2699 12.5388 16.4603 12.8515C16.6599 13.1792 16.8209 13.5196 16.9387 13.863C17.0618 14.2219 17.1653 14.6176 17.2463 15.0391C17.3284 15.4671 17.384 15.8692 17.4111 16.2345V16.2348C17.4391 16.6064 17.4531 16.9947 17.4533 17.3894C17.4531 18.1461 17.2242 18.7174 16.7529 19.1359Z" fill="currentColor"/>
	</symbol>

	<symbol id="cloud" viewBox="0 0 23 23">
		<path d="M19.6713 5.5814C19.4719 2.47005 16.8772 0 13.7164 0C12.5822 0 11.4785 0.319729 10.5247 0.924698C9.80866 1.37887 9.20009 1.9776 8.73625 2.67941C8.1808 2.38112 7.55572 2.22163 6.9185 2.22163C5.90194 2.22163 4.94385 2.615 4.2207 3.32919C3.62439 3.91812 3.24398 4.66958 3.12157 5.48474C2.31815 5.72143 1.59297 6.18896 1.04244 6.83286C0.370211 7.61902 0 8.62237 0 9.65805C0 12.0565 1.95132 14.0079 4.34983 14.0079H18.1501C20.5486 14.0079 22.4999 12.0565 22.4999 9.65801C22.4999 7.81744 21.3597 6.20746 19.6713 5.5814ZM18.1501 12.6897H4.34983C2.67812 12.6897 1.3181 11.3297 1.3181 9.65801C1.3181 8.16999 2.38142 6.91256 3.84644 6.66805C4.16081 6.61559 4.39262 6.34569 4.39697 6.02701C4.41573 4.65552 5.54688 3.5397 6.9185 3.5397C7.50769 3.5397 8.08111 3.74739 8.53309 4.1245C8.68814 4.25389 8.8939 4.30499 9.09153 4.26329C9.28911 4.22155 9.45664 4.09154 9.54614 3.91048C10.3365 2.31144 11.9345 1.31815 13.7164 1.31815C16.28 1.31815 18.3655 3.40375 18.3655 5.9673C18.3655 5.99779 18.3649 6.02811 18.3643 6.05843C18.3582 6.36739 18.5676 6.6391 18.8678 6.71195C20.2303 7.04248 21.1818 8.254 21.1818 9.6581C21.1818 11.3297 19.8218 12.6897 18.1501 12.6897Z" fill="currentColor"/>
	</symbol>

	<symbol id="phone_support" viewBox="0 0 23 23">
		<circle cx="11.8868" cy="11.7159" r="10.8649" fill="transparent" stroke="currentColor" stroke-width="0.749306"/>
		<path d="M13.7386 14.8476L13.9457 14.9009L14.097 14.7497L15.0047 13.8419C15.0095 13.8393 15.0232 13.8327 15.0513 13.8263C15.0994 13.8153 15.1745 13.8082 15.2843 13.8141C15.5216 13.8268 15.7641 13.8648 16.0121 13.9292C16.2687 13.9959 16.4673 14.066 16.6143 14.1365L16.6142 14.1366L16.6186 14.1386C16.9684 14.301 17.1942 14.4915 17.3288 14.696C17.3995 14.8034 17.4114 14.8621 17.4126 14.8803C17.4116 14.8815 17.4102 14.8829 17.4085 14.8847L16.2898 16.0033C16.055 16.2381 15.7318 16.3837 15.2868 16.417C14.8289 16.4513 14.3179 16.3807 13.7494 16.1923C13.181 16.0039 12.5695 15.7014 11.9141 15.2781C11.2626 14.8573 10.6393 14.3503 10.0445 13.7555C9.44976 13.1607 8.94268 12.5374 8.5219 11.8859C8.09845 11.2303 7.79586 10.6203 7.60754 10.0553C7.41933 9.49068 7.34874 8.98164 7.383 8.52378C7.4163 8.07878 7.56186 7.75557 7.79669 7.52075L8.90106 6.41638C8.9048 6.41776 8.90907 6.41945 8.9139 6.42154C8.93827 6.43211 8.97232 6.45092 9.01628 6.48278C9.2102 6.6233 9.43985 6.86908 9.70184 7.24474C9.77951 7.36321 9.8718 7.63115 9.94777 8.11116C9.98374 8.33841 9.9921 8.5124 9.98141 8.63999C9.97283 8.74248 9.95343 8.79756 9.94013 8.82384L9.05035 9.71362L8.89592 9.86805L8.9542 10.0785C9.10159 10.6108 9.47472 11.2219 10.0268 11.903C10.5847 12.5913 11.2079 13.2163 11.8961 13.7778C12.5782 14.3342 13.1952 14.7076 13.7386 14.8476Z" fill="currentColor" stroke="currentColor" stroke-width="0.749306"/>
	</symbol>

	<symbol id="plus" viewBox="0 0 23 23">
		<path d="M19.4906 10.8843H0.759373C0.340198 10.8843 0 10.5441 0 10.125C0 9.7058 0.340198 9.3656 0.759373 9.3656H19.4906C19.9098 9.3656 20.25 9.7058 20.25 10.125C20.25 10.5441 19.9098 10.8843 19.4906 10.8843Z" fill="currentColor"/>
		<path d="M10.1244 20.25C9.7052 20.25 9.36499 19.9098 9.36499 19.4906V0.759373C9.36499 0.340198 9.7052 0 10.1244 0C10.5436 0 10.8838 0.340198 10.8838 0.759373V19.4906C10.8838 19.9098 10.5436 20.25 10.1244 20.25Z" fill="currentColor"/>
	</symbol>

</svg>